<?xml version="1.0" encoding="UTF-8"?>
<svg version="1.1" xmlns="http://www.w3.org/2000/svg" width="200" height="219">
<path d="M0 0 C66 0 132 0 200 0 C200 72.27 200 144.54 200 219 C134 219 68 219 0 219 C0 146.73 0 74.46 0 0 Z " fill="#FEFEFE" transform="translate(0,0)"/>
<path d="M0 0 C0.33 0.99 0.66 1.98 1 3 C-10.385 10.425 -10.385 10.425 -22 18 C-14.55070536 16.40555134 -14.55070536 16.40555134 -7.10400391 14.79907227 C2.53121621 12.7642799 11.78709665 11.83110005 21.625 11.9375 C22.84509766 11.94426758 22.84509766 11.94426758 24.08984375 11.95117188 C26.05992898 11.96276061 28.02997536 11.98068603 30 12 C26.14110896 15.4761911 21.48610558 16.8282872 16.6875 18.5625 C4.92172204 22.91718304 -6.54044747 27.90197032 -18 33 C-17.3608667 33.1858667 -16.7217334 33.3717334 -16.06323242 33.56323242 C7.36189236 40.41694533 7.36189236 40.41694533 16 45 C15.67 45.66 15.34 46.32 15 47 C12.93359375 47.6328125 12.93359375 47.6328125 10.4375 48.125 C9.19806641 48.37636719 9.19806641 48.37636719 7.93359375 48.6328125 C7.29550781 48.75398438 6.65742188 48.87515625 6 49 C6.61746094 49.53367188 7.23492187 50.06734375 7.87109375 50.6171875 C24.58972161 65.32550851 24.58972161 65.32550851 27 74 C20.25 73.125 20.25 73.125 18 72 C18.42152344 73.03640625 18.84304687 74.0728125 19.27734375 75.140625 C19.83086716 76.51036091 20.38424494 77.88015568 20.9375 79.25 C21.21529297 79.93191406 21.49308594 80.61382812 21.77929688 81.31640625 C24.21470425 87.36091131 25.12295993 91.72032712 25.0625 98.25 C25.05347656 99.51328125 25.04445312 100.7765625 25.03515625 102.078125 C25.01775391 103.52445313 25.01775391 103.52445313 25 105 C21.52276264 103.74433095 18.90617542 102.26656844 16 100 C15.96189209 100.67804688 15.92378418 101.35609375 15.88452148 102.0546875 C15.40849366 108.73642921 14.23670902 114.67325313 12.0625 121 C11.75675049 121.8971875 11.45100098 122.794375 11.13598633 123.71875 C5.8811891 138.51792183 -1.56340613 152.22442758 -12 164 C-12.48307617 164.54881836 -12.96615234 165.09763672 -13.46386719 165.66308594 C-29.83798977 183.92049418 -51.02146264 192.46678119 -75.33951569 194.16320419 C-80.9058045 194.39650256 -86.4695201 194.3468124 -92.0390625 194.29296875 C-93.78453196 194.28735261 -95.53000624 194.2830921 -97.27548218 194.28010559 C-101.80291501 194.26881525 -106.33004515 194.23949058 -110.85736084 194.20599365 C-115.50382394 194.1749455 -120.1503374 194.16152711 -124.796875 194.14648438 C-133.86471414 194.11460053 -142.93233161 194.06360358 -152 194 C-151.69694793 192.11563945 -151.39074105 190.23178614 -151.08325195 188.34814453 C-150.9130806 187.29901886 -150.74290924 186.24989319 -150.56758118 185.16897583 C-149.70131994 180.33237968 -148.46680317 175.61616511 -147.1875 170.875 C-146.78893799 169.37271851 -146.78893799 169.37271851 -146.38232422 167.84008789 C-144.6477266 161.32885894 -142.85840203 154.83341872 -141.03808594 148.34570312 C-138.94712957 140.87094572 -136.93985182 133.37386894 -134.9375 125.875 C-134.67512039 124.89404861 -134.67512039 124.89404861 -134.40744019 123.89328003 C-132.11069287 115.29987424 -129.88759601 106.69846468 -127.88671875 98.03125 C-126.54947728 93.45988709 -125.28852854 90.01799767 -121.48828125 87.015625 C-118.43484987 84.54220178 -117.57441904 82.39561575 -116.1875 78.75 C-115.76855469 77.67234375 -115.34960938 76.5946875 -114.91796875 75.484375 C-114.61503906 74.66453125 -114.31210938 73.8446875 -114 73 C-112.68 73 -111.36 73 -110 73 C-103.37315233 62.77196216 -99.7917903 52.83826466 -97 41 C-96.34 41 -95.68 41 -95 41 C-94.505 43.97 -94.505 43.97 -94 47 C-92.07231152 44.50833116 -90.16001767 42.00523248 -88.25 39.5 C-87.71117188 38.80390625 -87.17234375 38.1078125 -86.6171875 37.390625 C-81.534741 30.69667107 -78.04006339 24.16025358 -76 16 C-75.34 16 -74.68 16 -74 16 C-73.505 19.465 -73.505 19.465 -73 23 C-68.99361955 23 -68.31517688 21.64447596 -65.5 18.875 C-60.54179552 14.26678642 -55.32112623 10.52406082 -49 8 C-48.01 8.495 -48.01 8.495 -47 9 C-48.65 11.64 -50.3 14.28 -52 17 C-52.495 15.515 -52.495 15.515 -53 14 C-65.0084751 21.36810935 -65.0084751 21.36810935 -74 32 C-74.99 32.66 -75.98 33.32 -77 34 C-77.33 33.01 -77.66 32.02 -78 31 C-83.59197844 38.07717191 -88.92485356 45.13864178 -93.625 52.85546875 C-95 55 -95 55 -97 57 C-97.33 56.67 -97.66 56.34 -98 56 C-99.32 60.29 -100.64 64.58 -102 69 C-102.66 69 -103.32 69 -104 69 C-104.33 71.31 -104.66 73.62 -105 76 C-105.99 75.67 -106.98 75.34 -108 75 C-109.88391785 78.26545761 -110.49287967 81.28111761 -111 85 C-111.66 85 -112.32 85 -113 85 C-113.33 83.68 -113.66 82.36 -114 81 C-114.24234375 81.62648438 -114.4846875 82.25296875 -114.734375 82.8984375 C-115.06953125 83.71570313 -115.4046875 84.53296875 -115.75 85.375 C-116.07484375 86.18710938 -116.3996875 86.99921875 -116.734375 87.8359375 C-118.22907697 90.39169333 -119.39903558 90.74047786 -122 92 C-123.88500549 94.98769645 -124.24015546 97.2678738 -124.1953125 100.765625 C-124.18886719 101.65507813 -124.18242188 102.54453125 -124.17578125 103.4609375 C-124.15902344 104.38132812 -124.14226562 105.30171875 -124.125 106.25 C-124.11597656 107.18585938 -124.10695313 108.12171875 -124.09765625 109.0859375 C-124.07413636 111.39088657 -124.04126853 113.6953116 -124 116 C-123.34 116 -122.68 116 -122 116 C-121.835 115.319375 -121.67 114.63875 -121.5 113.9375 C-118.43084287 107.9270673 -112.65268239 104.39160943 -107 101 C-105.78111268 99.907495 -104.57412168 98.80166366 -103.375 97.6875 C-99.43348074 94.14909066 -95.23424942 91.77550902 -90.546875 89.34765625 C-88.46150358 88.24420051 -86.55466771 87.09778337 -84.625 85.75 C-78.95265955 81.9684397 -73.66915633 81.49209309 -67 81 C-66.67 81.66 -66.34 82.32 -66 83 C-66.99 83 -67.98 83 -69 83 C-68.505 86.465 -68.505 86.465 -68 90 C-67.29875 89.071875 -66.5975 88.14375 -65.875 87.1875 C-63.31163479 84.09831629 -60.75991616 82.50396646 -57 81 C-56.34 81 -55.68 81 -55 81 C-55 80.34 -55 79.68 -55 79 C-54.3201001 79.01047363 -53.6402002 79.02094727 -52.93969727 79.03173828 C-49.81400351 79.07370103 -46.68836934 79.09945291 -43.5625 79.125 C-41.95858398 79.15013672 -41.95858398 79.15013672 -40.32226562 79.17578125 C-34.63416372 79.21057086 -29.47296158 78.95021299 -23.97265625 77.4453125 C-20.63487622 76.69183344 -17.40661333 76.87612315 -14 77 C-15.32 77.33 -16.64 77.66 -18 78 C-15.90576326 82.0782505 -14.20573358 84.12084244 -10 86 C-8.44398158 86.34332079 -6.88024121 86.65245614 -5.3125 86.9375 C4.88358591 88.80502534 13.22996311 93.63551008 22 99 C20.54154476 83.77965084 20.54154476 83.77965084 12.9453125 71.17578125 C8.718088 69.48825529 4.70264433 69.43034493 0.1875 69.3125 C-0.69615234 69.27833984 -1.57980469 69.24417969 -2.49023438 69.20898438 C-4.65972167 69.12689567 -6.8298389 69.06176121 -9 69 C-7 67 -7 67 -4.70922852 66.75708008 C-3.77522217 66.76118896 -2.84121582 66.76529785 -1.87890625 66.76953125 C-0.86119141 66.77146484 0.15652344 66.77339844 1.20507812 66.77539062 C2.27177734 66.78763672 3.33847656 66.79988281 4.4375 66.8125 C5.50033203 66.81314453 6.56316406 66.81378906 7.65820312 66.81445312 C15.57862271 66.8595409 15.57862271 66.8595409 19 68 C11.77833451 58.08178774 11.77833451 58.08178774 2 51 C-2.57016221 50.56116412 -5.97951624 51.47984584 -10.25 53.0625 C-12.1472416 53.76334671 -14.06163315 54.42255239 -16 55 C-16.66 54.67 -17.32 54.34 -18 54 C-11.03704442 49.60991948 -3.9079343 47.18782108 4 45 C-7.33303044 40.09076101 -18.5095944 36.08233755 -31 37 C-26.82566825 33.3153016 -22.43994619 31.0688075 -17.4375 28.75 C-16.61918701 28.36593994 -15.80087402 27.98187988 -14.95776367 27.58618164 C-5.79253346 23.34464484 3.58368302 19.64150509 13 16 C-4.47766385 16.98938916 -20.1379256 19.21316348 -36 27 C-34.51711564 23.28050001 -32.5598185 21.65637473 -29.3125 19.375 C-28.3328125 18.68535156 -27.353125 17.99570312 -26.34375 17.28515625 C-17.68258294 11.33973464 -8.96079227 5.48619935 0 0 Z " fill="#080808" transform="translate(162,19)"/>
<path d="M0 0 C0 0.66 0 1.32 0 2 C-18.13333333 12 -18.13333333 12 -22 12 C-23.85776712 13.09314623 -25.66380777 14.2751395 -27.4375 15.5 C-28.50484375 16.23089844 -29.5721875 16.96179688 -30.671875 17.71484375 C-31.49848633 18.28501221 -31.49848633 18.28501221 -32.34179688 18.86669922 C-34.93181688 20.63685129 -37.56342207 22.34339254 -40.1875 24.0625 C-45.31970742 27.47720981 -50.20651236 31.12647464 -55 35 C-52.75485516 34.25161839 -50.52228051 33.46533989 -48.296875 32.66015625 C-38.4943434 29.17962609 -29.41027407 26.86100011 -19 26 C-18.00734131 25.91758057 -18.00734131 25.91758057 -16.99462891 25.83349609 C-12.99893014 25.50889943 -9.00193903 25.23432001 -5 25 C-7.49590948 27.49590948 -9.79969365 28.26415985 -13.08203125 29.57421875 C-14.33793443 30.08257409 -15.5937922 30.59104161 -16.84960938 31.09960938 C-18.81174305 31.88722471 -20.77477809 32.67247529 -22.73901367 33.45483398 C-31.84833077 37.09366397 -40.45978955 41.15895269 -49 46 C-47.865625 45.896875 -46.73125 45.79375 -45.5625 45.6875 C-35.19255388 45.65457954 -24.55524947 50.33482557 -15 54 C-16 56 -16 56 -19.203125 57.18359375 C-20.54978049 57.60892355 -21.89888184 58.0265667 -23.25 58.4375 C-27.83606196 59.83806035 -31.97474359 61.32429661 -36 64 C-35.20335937 63.71125 -34.40671875 63.4225 -33.5859375 63.125 C-32.52632813 62.75375 -31.46671875 62.3825 -30.375 62 C-29.33085937 61.62875 -28.28671875 61.2575 -27.2109375 60.875 C-23.86923119 59.9643647 -21.43906035 59.59377542 -18 60 C-11.4456478 63.80902075 -5.38468641 69.81497878 -1 76 C-1 76.66 -1 77.32 -1 78 C-9.58 78 -18.16 78 -27 78 C-21.67605797 78.16987491 -21.67605797 78.16987491 -16.35107422 78.29785156 C-11.20499026 78.53115052 -7.90794108 79.37366056 -4 83 C-2.48948875 85.6223052 -1.54569003 88.31223032 -0.625 91.1875 C-0.36589844 91.90486328 -0.10679687 92.62222656 0.16015625 93.36132812 C1.97591598 98.72694617 2.23480342 103.34794621 2 109 C-1.63823482 107.99948543 -4.57669497 106.70956007 -7.6875 104.625 C-13.83729608 100.64641055 -20.63261155 98.36793426 -27.8125 97.0625 C-32.38582777 96.14125412 -34.79076428 94.37381191 -38 91 C-38 90.01 -38 89.02 -38 88 C-42.78720945 88.65915432 -42.78720945 88.65915432 -47.5390625 89.52734375 C-52.44780038 90.19772443 -57.30198362 90.14432819 -62.25 90.125 C-63.75820312 90.13080078 -63.75820312 90.13080078 -65.296875 90.13671875 C-66.2559375 90.13542969 -67.215 90.13414063 -68.203125 90.1328125 C-69.07614258 90.13168457 -69.94916016 90.13055664 -70.84863281 90.12939453 C-73 90 -73 90 -75 89 C-75 89.66 -75 90.32 -75 91 C-75.59167969 91.30292969 -76.18335937 91.60585937 -76.79296875 91.91796875 C-81.61889957 94.47657808 -85.37448622 96.90667799 -89 101 C-89 98.36 -89 95.72 -89 93 C-88.34 92.67 -87.68 92.34 -87 92 C-94.78699026 92.18224871 -100.30161285 94.11869156 -107 98 C-107.84820312 98.47953125 -108.69640625 98.9590625 -109.5703125 99.453125 C-115.80407046 103.0751862 -122.01641651 106.92600489 -127.0625 112.125 C-129.23761442 114.22994944 -131.60942746 115.42623811 -134.25390625 116.859375 C-137.68734982 119.10225089 -140.17117005 122.34234011 -142 126 C-142.66 126 -143.32 126 -144 126 C-145.67533975 122.64932051 -145.26881948 118.93081208 -145.3125 115.25 C-145.34150391 114.45078125 -145.37050781 113.6515625 -145.40039062 112.828125 C-145.45826756 107.41440531 -144.69756123 104.2372053 -141 100 C-139.515 99.505 -139.515 99.505 -138 99 C-136.76049958 96.90861544 -136.76049958 96.90861544 -135.8125 94.4375 C-135.46832031 93.61121094 -135.12414062 92.78492187 -134.76953125 91.93359375 C-134.51558594 91.29550781 -134.26164062 90.65742187 -134 90 C-133.67 90 -133.34 90 -133 90 C-133 91.65 -133 93.3 -133 95 C-132.34 95 -131.68 95 -131 95 C-131.061875 94.113125 -131.12375 93.22625 -131.1875 92.3125 C-130.98048018 88.65514983 -130.083926 86.95222849 -128 84 C-127.34 84.33 -126.68 84.66 -126 85 C-125.34 83.02 -124.68 81.04 -124 79 C-123.34 79 -122.68 79 -122 79 C-121.89042969 78.25234375 -121.78085938 77.5046875 -121.66796875 76.734375 C-121.50941406 75.74953125 -121.35085937 74.7646875 -121.1875 73.75 C-121.03667969 72.77546875 -120.88585937 71.8009375 -120.73046875 70.796875 C-119.96781736 67.87677662 -118.96225899 66.25794185 -117 64 C-116.505 64.495 -116.505 64.495 -116 65 C-115.5875 64.32195312 -115.175 63.64390625 -114.75 62.9453125 C-110.58461979 56.232356 -106.03300019 50.08110951 -101 44 C-99.66410939 42.33538238 -98.33009388 40.66925307 -97 39 C-96.505 40.98 -96.505 40.98 -96 43 C-95.443125 42.29875 -94.88625 41.5975 -94.3125 40.875 C-93.549375 39.92625 -92.78625 38.9775 -92 38 C-91.34 37.071875 -90.68 36.14375 -90 35.1875 C-86.02469931 30.38453418 -80.33477645 27.10472957 -75 24 C-74.34 24 -73.68 24 -73 24 C-72.01 25.98 -72.01 25.98 -71 28 C-70.00419922 27.25943359 -70.00419922 27.25943359 -68.98828125 26.50390625 C-68.10527344 25.86324219 -67.22226563 25.22257812 -66.3125 24.5625 C-65.44238281 23.92441406 -64.57226562 23.28632812 -63.67578125 22.62890625 C-60.96224082 20.97701375 -59.07445869 20.58191647 -56 20 C-54.32174547 19.03339263 -52.67878947 18.0044941 -51.0625 16.9375 C-37.30331968 8.69553098 -16.23102303 0 0 0 Z " fill="#232323" transform="translate(182,9)"/>
<path d="M0 0 C0.495 0.99 0.495 0.99 1 2 C-0.03302536 4.64028257 -1.12263864 7.18155653 -2.3125 9.75 C-6.83047882 19.53365146 -6.83047882 19.53365146 -8.4375 30.125 C-8.47746094 31.13820313 -8.51742187 32.15140625 -8.55859375 33.1953125 C-8.23296932 36.13995407 -8.23296932 36.13995407 -5.95166016 38.14160156 C-2.31438958 40.43166803 0.6195883 40.56885925 4.78515625 40.5390625 C5.52326035 40.55085541 6.26136444 40.56264832 7.02183533 40.57479858 C9.36894013 40.60995713 11.71515378 40.61921777 14.0625 40.625 C16.41314892 40.64136909 18.76340296 40.66345228 21.11387634 40.69662476 C22.57288952 40.71617886 24.03208344 40.72559784 25.4912262 40.72354126 C29.15856503 40.76196076 31.88041333 40.98500627 35 43 C26.29670557 46.833211 17.40396954 49.03135697 8.1640625 51.1796875 C-0.9865016 53.42573505 -9.13895181 56.75930121 -17 62 C-18.84481795 62.32852922 -20.70170863 62.59172814 -22.5625 62.8125 C-28.81829202 63.78361573 -33.56260256 65.8368986 -39 69 C-39.845625 69.47824219 -40.69125 69.95648438 -41.5625 70.44921875 C-47.79931181 74.07151342 -54.01448124 77.92401097 -59.0625 83.125 C-61.23761442 85.22994944 -63.60942746 86.42623811 -66.25390625 87.859375 C-69.68734982 90.10225089 -72.17117005 93.34234011 -74 97 C-74.66 97 -75.32 97 -76 97 C-77.67533975 93.64932051 -77.26881948 89.93081208 -77.3125 86.25 C-77.34150391 85.45078125 -77.37050781 84.6515625 -77.40039062 83.828125 C-77.45826756 78.41440531 -76.69756123 75.2372053 -73 71 C-71.515 70.505 -71.515 70.505 -70 70 C-68.76049958 67.90861544 -68.76049958 67.90861544 -67.8125 65.4375 C-67.46832031 64.61121094 -67.12414062 63.78492188 -66.76953125 62.93359375 C-66.51558594 62.29550781 -66.26164062 61.65742187 -66 61 C-65.67 61 -65.34 61 -65 61 C-65 62.65 -65 64.3 -65 66 C-64.34 66 -63.68 66 -63 66 C-63.061875 65.113125 -63.12375 64.22625 -63.1875 63.3125 C-62.98048018 59.65514983 -62.083926 57.95222849 -60 55 C-59.34 55.33 -58.68 55.66 -58 56 C-57.34 54.35 -56.68 52.7 -56 51 C-54 54 -54 54 -53 56 C-49.97065509 56.65772428 -49.97065509 56.65772428 -47 57 C-47 56.34 -47 55.68 -47 55 C-46.28972656 54.74605469 -45.57945313 54.49210937 -44.84765625 54.23046875 C-43.92855469 53.88628906 -43.00945312 53.54210937 -42.0625 53.1875 C-41.14597656 52.85105469 -40.22945312 52.51460937 -39.28515625 52.16796875 C-36.6659576 51.16590906 -36.6659576 51.16590906 -36 48 C-35 47 -34 46 -33 45 C-33 44.34 -33 43.68 -33 43 C-33.66 43.66 -34.32 44.32 -35 45 C-34.88525534 42.45749979 -34.7585303 39.91652662 -34.625 37.375 C-34.57859375 36.30572266 -34.57859375 36.30572266 -34.53125 35.21484375 C-33.97360392 25.0842733 -33.97360392 25.0842733 -30.328125 21.234375 C-29.64234375 20.74453125 -28.9565625 20.2546875 -28.25 19.75 C-27.05117187 18.87794922 -27.05117187 18.87794922 -25.828125 17.98828125 C-24.89484375 17.33214844 -23.9615625 16.67601563 -23 16 C-21.86875095 15.18242766 -20.73860097 14.36333308 -19.609375 13.54296875 C-13.16947208 8.88285911 -6.66348514 4.33655382 0 0 Z " fill="#F8F8F8" transform="translate(114,38)"/>
<path d="M0 0 C0.9384375 -0.04898438 1.876875 -0.09796875 2.84375 -0.1484375 C5.5 0.375 5.5 0.375 7.8046875 2.50390625 C12.86697032 11.07712716 9.19688709 23.20255133 7 32.3125 C3.83704364 44.56991321 -0.06735905 57.90254059 -10.34765625 66.11328125 C-17.31205629 70.19586058 -22.43937625 70.77571041 -30.4375 70.5625 C-31.40751953 70.54896484 -32.37753906 70.53542969 -33.37695312 70.52148438 C-35.75192245 70.48638631 -38.12555724 70.43455306 -40.5 70.375 C-39.92267813 63.8805367 -38.75935171 57.87663307 -37.03125 51.59765625 C-36.79088013 50.70509628 -36.55051025 49.81253632 -36.30285645 48.89292908 C-35.79826752 47.02405202 -35.29053655 45.15602067 -34.77978516 43.28881836 C-33.99600505 40.42289228 -33.22180997 37.55450736 -32.44921875 34.68554688 C-31.95627857 32.86443453 -31.46280808 31.04346563 -30.96875 29.22265625 C-30.73643677 28.36438736 -30.50412354 27.50611847 -30.26477051 26.62184143 C-30.04784546 25.83019089 -29.83092041 25.03854034 -29.60742188 24.22290039 C-29.41724487 23.52612686 -29.22706787 22.82935333 -29.03112793 22.11146545 C-28.5 20.375 -28.5 20.375 -27.5 18.375 C-25.52 18.375 -23.54 18.375 -21.5 18.375 C-21.4175 17.34375 -21.335 16.3125 -21.25 15.25 C-20.32207071 10.45569867 -18.85952186 7.09799968 -14.8203125 4.1484375 C-9.86697748 1.19344365 -5.69420996 0.20336464 0 0 Z " fill="#FAFAFA" transform="translate(114.5,100.625)"/>
<path d="M0 0 C-2.49590948 2.49590948 -4.79969365 3.26415985 -8.08203125 4.57421875 C-9.33793443 5.08257409 -10.5937922 5.59104161 -11.84960938 6.09960938 C-13.81174305 6.88722471 -15.77477809 7.67247529 -17.73901367 8.45483398 C-26.84833077 12.09366397 -35.45978955 16.15895269 -44 21 C-42.865625 20.896875 -41.73125 20.79375 -40.5625 20.6875 C-30.19255388 20.65457954 -19.55524947 25.33482557 -10 29 C-11 31 -11 31 -14.203125 32.18359375 C-15.54978049 32.60892355 -16.89888184 33.0265667 -18.25 33.4375 C-22.83606196 34.83806035 -26.97474359 36.32429661 -31 39 C-29.80503906 38.566875 -29.80503906 38.566875 -28.5859375 38.125 C-27.52632812 37.75375 -26.46671875 37.3825 -25.375 37 C-24.33085937 36.62875 -23.28671875 36.2575 -22.2109375 35.875 C-18.86923119 34.9643647 -16.43906035 34.59377542 -13 35 C-6.4456478 38.80902075 -0.38468641 44.81497878 4 51 C4 51.66 4 52.32 4 53 C-4.58 53 -13.16 53 -22 53 C-16.67605797 53.16987491 -16.67605797 53.16987491 -11.35107422 53.29785156 C-6.20499026 53.53115052 -2.90794108 54.37366056 1 58 C2.51051125 60.6223052 3.45430997 63.31223032 4.375 66.1875 C4.63410156 66.90486328 4.89320313 67.62222656 5.16015625 68.36132812 C6.97591598 73.72694617 7.23480342 78.34794621 7 84 C3.36176518 82.99948543 0.42330503 81.70956007 -2.6875 79.625 C-8.83729608 75.64641055 -15.63261155 73.36793426 -22.8125 72.0625 C-27.38582777 71.14125412 -29.79076428 69.37381191 -33 66 C-33 65.01 -33 64.02 -33 63 C-30.79344925 62.49219106 -28.58466395 61.99408635 -26.375 61.5 C-25.14523438 61.2215625 -23.91546875 60.943125 -22.6484375 60.65625 C-19.32847772 60.05908379 -16.36091549 59.87590466 -13 60 C-13 59.34 -13 58.68 -13 58 C-13.76183594 57.89042969 -14.52367187 57.78085938 -15.30859375 57.66796875 C-21.83677611 56.66551378 -27.79917763 55.27363487 -34 53 C-34 52.34 -34 51.68 -34 51 C-28.06 48.525 -28.06 48.525 -22 46 C-31.9670097 43.83325876 -41.84095059 43.40004547 -52 43 C-47.76639855 38.35252305 -42.94215161 35.10074252 -37.6875 31.6875 C-36.43356445 30.86282227 -36.43356445 30.86282227 -35.15429688 30.02148438 C-33.10628109 28.67564543 -31.0548599 27.33535595 -29 26 C-36.83415804 25.79413891 -44.20820664 25.92600852 -51.890625 27.5625 C-54 28 -54 28 -56 28 C-58.34570085 28.97063483 -60.68020619 29.96898053 -63 31 C-60.93036135 24.60293509 -57.55742478 20.57801098 -51.6875 17.5 C-47.06279586 15.35531092 -42.32331805 13.50502333 -37.5625 11.6875 C-36.86406982 11.42066406 -36.16563965 11.15382813 -35.44604492 10.87890625 C-32.49301358 9.78559054 -30.17495195 9 -27 9 C-27 8.01 -27 7.02 -27 6 C-25.68 6 -24.36 6 -23 6 C-22.67 4.68 -22.34 3.36 -22 2 C-19.27123692 1.66304138 -16.54206837 1.33031571 -13.8125 1 C-13.04357422 0.90460937 -12.27464844 0.80921875 -11.48242188 0.7109375 C-7.63071189 0.24807106 -3.88829149 -0.12467468 0 0 Z " fill="#F3F3F3" transform="translate(177,34)"/>
<path d="M0 0 C0.99 0.495 0.99 0.495 2 1 C0.35 3.64 -1.3 6.28 -3 9 C-3.495 7.515 -3.495 7.515 -4 6 C-16.0084751 13.36810935 -16.0084751 13.36810935 -25 24 C-25.99 24.66 -26.98 25.32 -28 26 C-28.495 24.515 -28.495 24.515 -29 23 C-34.59197844 30.07717191 -39.92485356 37.13864178 -44.625 44.85546875 C-46 47 -46 47 -48 49 C-48.33 48.67 -48.66 48.34 -49 48 C-50.32 52.29 -51.64 56.58 -53 61 C-53.66 61 -54.32 61 -55 61 C-55.33 63.31 -55.66 65.62 -56 68 C-56.99 67.67 -57.98 67.34 -59 67 C-60.88391785 70.26545761 -61.49287967 73.28111761 -62 77 C-62.66 77 -63.32 77 -64 77 C-64.33 75.68 -64.66 74.36 -65 73 C-65.24234375 73.62648438 -65.4846875 74.25296875 -65.734375 74.8984375 C-66.06953125 75.71570313 -66.4046875 76.53296875 -66.75 77.375 C-67.07484375 78.18710938 -67.3996875 78.99921875 -67.734375 79.8359375 C-69.22907697 82.39169333 -70.39903558 82.74047786 -73 84 C-74.88500549 86.98769645 -75.24015546 89.2678738 -75.1953125 92.765625 C-75.18886719 93.65507813 -75.18242188 94.54453125 -75.17578125 95.4609375 C-75.15902344 96.38132812 -75.14226562 97.30171875 -75.125 98.25 C-75.11597656 99.18585938 -75.10695313 100.12171875 -75.09765625 101.0859375 C-75.07413636 103.39088657 -75.04126853 105.6953116 -75 108 C-74.34 108.33 -73.68 108.66 -73 109 C-73.99 109 -74.98 109 -76 109 C-76 110.65 -76 112.3 -76 114 C-76.33 114 -76.66 114 -77 114 C-77 111.69 -77 109.38 -77 107 C-77.66 107 -78.32 107 -79 107 C-79.10191147 107.56325989 -79.20382294 108.12651978 -79.30882263 108.70684814 C-80.71779735 116.13738235 -82.65012625 123.384144 -84.66015625 130.671875 C-85.01400696 131.96589933 -85.36746944 133.26002988 -85.7205658 134.55426025 C-86.83076998 138.62054491 -87.94636877 142.68533894 -89.0625 146.75 C-90.36078624 151.47962068 -91.65679473 156.20984824 -92.94808769 160.94138336 C-93.46243762 162.82201239 -93.98045718 164.70163656 -94.49855042 166.58123779 C-94.81235153 167.72973206 -95.12615265 168.87822632 -95.44946289 170.06152344 C-95.72544815 171.06616638 -96.00143341 172.07080933 -96.28578186 173.105896 C-97.0140485 176.05692633 -97.53946804 178.99654432 -98 182 C-87.99306306 181.9616777 -77.98649256 181.90193735 -67.97984409 181.81609726 C-63.3315207 181.77686891 -58.68337977 181.7445613 -54.03491211 181.72900391 C-49.53479576 181.71367277 -45.03518192 181.67894366 -40.53529167 181.63169098 C-38.83286894 181.61704452 -37.13037439 181.60896881 -35.42788887 181.60811615 C-10.49196158 181.58310668 12.60722613 174.57531726 31 157 C37.35383887 150.06400312 42.77620232 142.90382217 46 134 C46.66 134.33 47.32 134.66 48 135 C48 135.66 48 136.32 48 137 C48.66 137.33 49.32 137.66 50 138 C44.45486074 146.96119926 38.26820869 154.43400431 31 162 C30.14341797 162.98613281 30.14341797 162.98613281 29.26953125 163.9921875 C15.70478144 179.12612431 -6.79571317 184.79983205 -26.33951569 186.16320419 C-31.9058045 186.39650256 -37.4695201 186.3468124 -43.0390625 186.29296875 C-44.78453196 186.28735261 -46.53000624 186.2830921 -48.27548218 186.28010559 C-52.80291501 186.26881525 -57.33004515 186.23949058 -61.85736084 186.20599365 C-66.50382394 186.1749455 -71.1503374 186.16152711 -75.796875 186.14648438 C-84.86471414 186.11460053 -93.93233161 186.06360358 -103 186 C-102.69694793 184.11563945 -102.39074105 182.23178614 -102.08325195 180.34814453 C-101.9130806 179.29901886 -101.74290924 178.24989319 -101.56758118 177.16897583 C-100.70131994 172.33237968 -99.46680317 167.61616511 -98.1875 162.875 C-97.78893799 161.37271851 -97.78893799 161.37271851 -97.38232422 159.84008789 C-95.6477266 153.32885894 -93.85840203 146.83341872 -92.03808594 140.34570312 C-89.94712957 132.87094572 -87.93985182 125.37386894 -85.9375 117.875 C-85.67512039 116.89404861 -85.67512039 116.89404861 -85.40744019 115.89328003 C-83.11069287 107.29987424 -80.88759601 98.69846468 -78.88671875 90.03125 C-77.54947728 85.45988709 -76.28852854 82.01799767 -72.48828125 79.015625 C-69.43484987 76.54220178 -68.57441904 74.39561575 -67.1875 70.75 C-66.76855469 69.67234375 -66.34960938 68.5946875 -65.91796875 67.484375 C-65.61503906 66.66453125 -65.31210938 65.8446875 -65 65 C-63.68 65 -62.36 65 -61 65 C-54.37315233 54.77196216 -50.7917903 44.83826466 -48 33 C-47.34 33 -46.68 33 -46 33 C-45.505 35.97 -45.505 35.97 -45 39 C-43.07231152 36.50833116 -41.16001767 34.00523248 -39.25 31.5 C-38.71117188 30.80390625 -38.17234375 30.1078125 -37.6171875 29.390625 C-32.534741 22.69667107 -29.04006339 16.16025358 -27 8 C-26.34 8 -25.68 8 -25 8 C-24.505 11.465 -24.505 11.465 -24 15 C-19.99361955 15 -19.31517688 13.64447596 -16.5 10.875 C-11.54179552 6.26678642 -6.32112623 2.52406082 0 0 Z " fill="#383738" transform="translate(113,27)"/>
<path d="M0 0 C0.66 0.99 1.32 1.98 2 3 C1.2575 3.515625 0.515 4.03125 -0.25 4.5625 C-3.53628545 7.47534392 -4.98763759 10.12433906 -7 14 C-5.906875 13.319375 -4.81375 12.63875 -3.6875 11.9375 C-1.82421875 10.77734375 -1.82421875 10.77734375 0 10 C0.99 10.33 1.98 10.66 3 11 C4.2375 10.690625 5.475 10.38125 6.75 10.0625 C13.4026533 8.41864371 20.19800041 8.83868776 27 9 C23.58999526 12.74926542 19.71983294 15.3298509 15.5 18.0625 C14.1763987 18.92733852 12.85346278 19.79319637 11.53125 20.66015625 C10.94923828 21.03793213 10.36722656 21.41570801 9.76757812 21.80493164 C7.79370426 23.13947757 5.89598067 24.55746257 4 26 C4.75619629 26.05534912 5.51239258 26.11069824 6.29150391 26.16772461 C9.73621904 26.42147068 13.1806051 26.67944491 16.625 26.9375 C17.81480469 27.02451172 19.00460938 27.11152344 20.23046875 27.20117188 C21.96103516 27.33168945 21.96103516 27.33168945 23.7265625 27.46484375 C24.78439941 27.543396 25.84223633 27.62194824 26.93212891 27.70288086 C29.9883959 27.99887616 32.9782631 28.45941404 36 29 C33.29954818 30.80030122 30.93322119 31.93377066 27.9375 33.125 C27.05964844 33.47820312 26.18179688 33.83140625 25.27734375 34.1953125 C23 35 23 35 21 35 C21 35.66 21 36.32 21 37 C22.26457031 37.27714844 23.52914062 37.55429688 24.83203125 37.83984375 C26.49220605 38.20564498 28.15236129 38.57153502 29.8125 38.9375 C31.06256836 39.21110352 31.06256836 39.21110352 32.33789062 39.49023438 C33.14033203 39.66748047 33.94277344 39.84472656 34.76953125 40.02734375 C35.50792236 40.18968506 36.24631348 40.35202637 37.00708008 40.51928711 C39 41 39 41 42 42 C42 42.66 42 43.32 42 44 C34.83975861 45.91243331 28.26242237 47.37779754 20.828125 46.91015625 C18.28088508 46.99107686 16.33742048 47.36752426 13.88671875 47.984375 C8.4325693 49.27280586 3.14258246 49.25832269 -2.4375 49.1875 C-3.42943359 49.18685547 -4.42136719 49.18621094 -5.44335938 49.18554688 C-12.7181677 49.14091615 -12.7181677 49.14091615 -15 48 C-15 48.66 -15 49.32 -15 50 C-15.59167969 50.30292969 -16.18335937 50.60585937 -16.79296875 50.91796875 C-21.61889957 53.47657808 -25.37448622 55.90667799 -29 60 C-29.77582699 55.00022606 -29.77582699 55.00022606 -29 52 C-26.3788049 49.31683811 -23.31450788 47.71000473 -20 46 C-19.31526611 45.61714844 -18.63053223 45.23429687 -17.92504883 44.83984375 C-11.01824263 41.1265827 -4.03635271 39.19367278 3.5625 37.375 C11.15799611 35.51282425 18.61997775 33.59915405 26 31 C22.43442877 29.81147626 19.19022499 29.86474676 15.48046875 29.859375 C13.96808393 29.84104469 12.45571372 29.82147417 10.94335938 29.80078125 C8.56672497 29.77184874 6.1910308 29.75000073 3.81420898 29.74951172 C1.51462039 29.74616338 -0.7828182 29.71153902 -3.08203125 29.671875 C-3.78536087 29.6789447 -4.48869049 29.6860144 -5.21333313 29.69329834 C-10.85181535 29.5552694 -13.1997857 27.88416871 -17 24 C-17.76186855 21.08966215 -17.31051095 19.0533577 -17 16 C-16.67 16 -16.34 16 -16 16 C-16 17.65 -16 19.3 -16 21 C-15.34 21 -14.68 21 -14 21 C-13.72671875 20.26523438 -13.4534375 19.53046875 -13.171875 18.7734375 C-10.16428551 11.6554757 -5.10604608 5.71390871 0 0 Z " fill="#232323" transform="translate(122,50)"/>
<path d="M0 0 C0.66 0 1.32 0 2 0 C2.79960857 9.11007034 0.37272256 17.27838206 -2.0625 25.9375 C-2.63079429 28.00091732 -3.19539681 30.06532224 -3.75985718 32.12979126 C-4.15400005 33.56981141 -4.5497092 35.0094037 -4.94692993 36.44857788 C-8.1038851 47.92840098 -11.03204986 59.47020759 -14 71 C-5.29691025 70.93824212 3.40586711 70.86075691 12.10864162 70.76428509 C16.15158965 70.71993913 20.19444512 70.68060932 24.23754883 70.65356445 C28.15407283 70.627168 32.07023348 70.58652389 35.9865284 70.53681374 C37.46566235 70.52038631 38.94485877 70.50872453 40.42407036 70.50238609 C65.20594875 70.38566768 88.95969889 64.91235288 107.18359375 47.00390625 C116.09119345 37.78238233 121.59792731 26.46652487 127 15 C127.33 15 127.66 15 128 15 C127.37152308 27.56953834 122.16972496 36.69031342 114 46 C113.47921875 46.67546875 112.9584375 47.3509375 112.421875 48.046875 C100.07655235 63.6344036 79.21344233 72.32178684 60 75 C57.34602679 75.08577811 54.71987016 75.12682576 52.06689453 75.11352539 C51.2954863 75.11367142 50.52407806 75.11381744 49.72929382 75.1139679 C47.19710409 75.11327508 44.66498928 75.10551241 42.1328125 75.09765625 C40.3701888 75.09578983 38.60756459 75.09436698 36.84494019 75.09336853 C32.21881666 75.08956103 27.59272482 75.07974589 22.96661377 75.06866455 C18.24076771 75.05841238 13.51491649 75.05386277 8.7890625 75.04882812 C-0.47397221 75.03812198 -9.73698346 75.02106686 -19 75 C-18.56768761 66.53631653 -16.50133835 58.69338527 -14.21875 50.56640625 C-13.84074167 49.19802034 -13.46343483 47.82944048 -13.08679199 46.4606781 C-12.10146274 42.88753766 -11.10629816 39.31721035 -10.10906982 35.74737549 C-9.09365289 32.10483817 -8.08850188 28.45947026 -7.08203125 24.81445312 C-5.6123036 19.49936965 -4.13934448 14.18520613 -2.65820312 8.87329102 C-2.36143677 7.80869156 -2.06467041 6.7440921 -1.75891113 5.64723206 C-1.2155762 3.7519724 -0.6234759 1.87042771 0 0 Z " fill="#ECEBEC" transform="translate(34,134)"/>
<path d="M0 0 C1.875 0.1875 1.875 0.1875 4 1 C10.25488959 13.13136948 4.78952829 28.89434492 1.06640625 40.9609375 C-3.2391498 54.02706146 -8.75291037 66.47686356 -20.77734375 73.95703125 C-26.19756647 76.5004398 -31.30450314 77.24631328 -37.24609375 77.1953125 C-37.90207047 77.1924826 -38.55804718 77.18965271 -39.23390198 77.18673706 C-41.30196409 77.17565984 -43.36957173 77.15058063 -45.4375 77.125 C-46.85090515 77.11495402 -48.26431717 77.10583102 -49.67773438 77.09765625 C-53.11863394 77.07576184 -56.55927252 77.04132051 -60 77 C-59.40805629 69.50204637 -57.71386309 62.60591118 -55.6875 55.375 C-55.05050865 53.0638772 -54.41378845 50.75267965 -53.77734375 48.44140625 C-53.31690674 46.78069092 -53.31690674 46.78069092 -52.84716797 45.08642578 C-52.12826984 42.46731622 -51.43058603 39.84509862 -50.75390625 37.21484375 C-50.49250854 36.20188232 -50.49250854 36.20188232 -50.22583008 35.16845703 C-49.78864001 33.46321388 -49.35508104 31.75704087 -48.921875 30.05078125 C-47.83906029 26.46739868 -46.72587035 23.33257346 -45 20 C-42.8125 19.0625 -42.8125 19.0625 -41 19 C-43.45532898 29.08129194 -46.09362021 39.10226973 -48.84912109 49.10571289 C-50.45137516 54.93679149 -51.97817219 60.77233656 -53.359375 66.66015625 C-54.05482259 69.20023617 -54.97950941 71.57417278 -56 74 C-35.89216844 73.97390799 -35.89216844 73.97390799 -18 66 C-17.34 66 -16.68 66 -16 66 C-15.72800781 65.43152344 -15.45601562 64.86304688 -15.17578125 64.27734375 C-13.96894304 61.93984649 -12.60385949 59.7785981 -11.1875 57.5625 C-1.45748744 41.35372298 4.0680982 18.81495418 0 0 Z " fill="#E9E9E9" transform="translate(125,101)"/>
<path d="M0 0 C0 4.62 0 9.24 0 14 C-1.794375 14.37125 -3.58875 14.7425 -5.4375 15.125 C-11.45495246 16.65955694 -16.53535007 18.56384784 -21 23 C-22.33165407 25.34791638 -23.29949967 27.58485507 -24.1484375 30.14453125 C-24.42945312 30.75683594 -24.71046875 31.36914062 -25 32 C-28.28519475 33.09506492 -30.73663415 33.09960608 -34.1875 33.0625 C-35.81751953 33.04896484 -35.81751953 33.04896484 -37.48046875 33.03515625 C-38.31191406 33.02355469 -39.14335938 33.01195312 -40 33 C-40.66 30.69 -41.32 28.38 -42 26 C-37.545 27.98 -37.545 27.98 -33 30 C-34.32 27.03 -35.64 24.06 -37 21 C-34.69 21 -32.38 21 -30 21 C-30.66 19.02 -31.32 17.04 -32 15 C-28.81698943 13.05505214 -25.62782509 11.12042233 -22.4375 9.1875 C-21.54224609 8.64029297 -20.64699219 8.09308594 -19.72460938 7.52929688 C-7.26704545 0 -7.26704545 0 0 0 Z " fill="#F5F5F5" transform="translate(91,103)"/>
<path d="M0 0 C-3.97363997 3.33816383 -8.14921605 6.05123682 -12.5625 8.75 C-28.52392052 18.64071676 -44.3057015 29.06649586 -58 42 C-59.28148025 38.15555926 -58.43706699 37.25070263 -56.6875 33.6875 C-55.19253083 30.61271205 -54.02204386 28.10420735 -53.3125 24.75 C-47.88508393 13.3782711 -26.15084528 6.95667917 -15.2109375 2.98828125 C-13.14901735 2.29985514 -11.07546159 1.64645525 -9 1 C-5.8035914 -0.06546953 -3.34252724 -0.07427838 0 0 Z " fill="#EFEFEF" transform="translate(169,15)"/>
<path d="M0 0 C0.99 0.495 0.99 0.495 2 1 C0.35 3.64 -1.3 6.28 -3 9 C-3.495 7.515 -3.495 7.515 -4 6 C-16.0084751 13.36810935 -16.0084751 13.36810935 -25 24 C-25.99 24.66 -26.98 25.32 -28 26 C-28.495 24.515 -28.495 24.515 -29 23 C-34.59197844 30.07717191 -39.92485356 37.13864178 -44.625 44.85546875 C-46 47 -46 47 -48 49 C-48.495 48.505 -48.495 48.505 -49 48 C-50.32 52.29 -51.64 56.58 -53 61 C-53.66 61 -54.32 61 -55 61 C-55.33 63.31 -55.66 65.62 -56 68 C-57.485 67.505 -57.485 67.505 -59 67 C-60.88391785 70.26545761 -61.49287967 73.28111761 -62 77 C-62.66 77 -63.32 77 -64 77 C-64.33 75.68 -64.66 74.36 -65 73 C-65.24234375 73.62648438 -65.4846875 74.25296875 -65.734375 74.8984375 C-66.06953125 75.71570313 -66.4046875 76.53296875 -66.75 77.375 C-67.07484375 78.18710938 -67.3996875 78.99921875 -67.734375 79.8359375 C-69.22763051 82.38922008 -70.40874396 82.73270579 -73 84 C-76.18801318 89.71134408 -76.6122047 96.5946915 -77 103 C-77.33 103 -77.66 103 -78 103 C-79.01513663 96.429048 -79.5563737 90.28493826 -77 84 C-74.5625 81.1875 -74.5625 81.1875 -72 79 C-69.56085875 76.10430154 -68.15890851 73.27851885 -66.8125 69.75 C-66.29623047 68.41195312 -66.29623047 68.41195312 -65.76953125 67.046875 C-65.51558594 66.37140625 -65.26164062 65.6959375 -65 65 C-63.68 65 -62.36 65 -61 65 C-54.37315233 54.77196216 -50.7917903 44.83826466 -48 33 C-47.34 33 -46.68 33 -46 33 C-45.505 35.97 -45.505 35.97 -45 39 C-43.07231152 36.50833116 -41.16001767 34.00523248 -39.25 31.5 C-38.71117187 30.80390625 -38.17234375 30.1078125 -37.6171875 29.390625 C-32.534741 22.69667107 -29.04006339 16.16025358 -27 8 C-26.34 8 -25.68 8 -25 8 C-24.505 11.465 -24.505 11.465 -24 15 C-19.99361955 15 -19.31517688 13.64447596 -16.5 10.875 C-11.54179552 6.26678642 -6.32112623 2.52406082 0 0 Z " fill="#1D1D1D" transform="translate(113,27)"/>
<path d="M0 0 C0.66 0 1.32 0 2 0 C2.79977556 9.11197282 0.36869264 17.27654973 -2.0625 25.9375 C-2.47264485 27.4343578 -2.88140168 28.93159656 -3.28881836 30.42919922 C-4.11645453 33.46918582 -4.94922366 36.50769538 -5.78515625 39.54541016 C-7.61439438 46.22042621 -9.33776901 52.92233563 -11.0625 59.625 C-12.5165625 65.255625 -12.5165625 65.255625 -14 71 C0.52 71 15.04 71 30 71 C30 71.33 30 71.66 30 72 C18.12 72.33 6.24 72.66 -6 73 C26.67 73.495 26.67 73.495 60 74 C60 74.33 60 74.66 60 75 C33.93 75 7.86 75 -19 75 C-17.87497313 63.74973131 -17.87497313 63.74973131 -16.34179688 58.22094727 C-16.00474731 56.99009903 -15.66769775 55.75925079 -15.32043457 54.49110413 C-14.95340508 53.18281574 -14.58617217 51.87458441 -14.21875 50.56640625 C-13.84074167 49.19802034 -13.46343483 47.82944048 -13.08679199 46.4606781 C-12.10146274 42.88753766 -11.10629816 39.31721035 -10.10906982 35.74737549 C-9.09365289 32.10483817 -8.08850188 28.45947026 -7.08203125 24.81445312 C-5.6123036 19.49936965 -4.13934448 14.18520613 -2.65820312 8.87329102 C-2.36143677 7.80869156 -2.06467041 6.7440921 -1.75891113 5.64723206 C-1.2155762 3.7519724 -0.6234759 1.87042771 0 0 Z " fill="#DCDCDC" transform="translate(34,134)"/>
<path d="M0 0 C-0.99 0.33 -1.98 0.66 -3 1 C-2.505 4.465 -2.505 4.465 -2 8 C-0.948125 6.6078125 -0.948125 6.6078125 0.125 5.1875 C2.7136223 2.10021958 5.12320793 0.319759 9 -1 C11.375 -0.1875 11.375 -0.1875 13 1 C11.1746875 1.5878125 11.1746875 1.5878125 9.3125 2.1875 C5.20103719 3.76380288 2.71773569 5.42811881 0 9 C-1.22787641 11.94591316 -2.17434892 14.91891184 -3 18 C-4.98 18 -6.96 18 -9 18 C-9.24234375 19.07636719 -9.4846875 20.15273437 -9.734375 21.26171875 C-11.80105133 30.31122452 -14.11341842 39.17135953 -17 48 C-17.66 48 -18.32 48 -19 48 C-18.43680102 41.59361165 -17.29713964 35.7292563 -15.5 29.5625 C-15.27441406 28.76134766 -15.04882812 27.96019531 -14.81640625 27.13476562 C-13.16149401 21.32298801 -13.16149401 21.32298801 -12 19 C-13.32 19.33 -14.64 19.66 -16 20 C-16.495 19.01 -16.495 19.01 -17 18 C-15.7625 17.67 -14.525 17.34 -13.25 17 C-12.55390625 16.814375 -11.8578125 16.62875 -11.140625 16.4375 C-9 16 -9 16 -5 16 C-5 11.38 -5 6.76 -5 2 C-15.2185595 4.39497488 -24.97400109 9.43545597 -33.3515625 15.78125 C-35 17 -35 17 -37 17 C-36.34 18.98 -35.68 20.96 -35 23 C-36.98 23.33 -38.96 23.66 -41 24 C-40.505 24.94875 -40.01 25.8975 -39.5 26.875 C-38 30 -38 30 -38 32 C-39.7015625 31.505 -39.7015625 31.505 -41.4375 31 C-44.54376639 29.95495727 -44.54376639 29.95495727 -46 30 C-45.34 32.97 -44.68 35.94 -44 39 C-49.62917348 38.59791618 -52.00386479 36.71069698 -56 33 C-53.22209692 27.44419383 -48.85581905 23.68420098 -43.5625 20.5625 C-41.16301654 19.09940033 -39.42425186 17.59126745 -37.375 15.6875 C-33.43348074 12.14909066 -29.23424942 9.77550902 -24.546875 7.34765625 C-22.46150358 6.24420051 -20.55466771 5.09778337 -18.625 3.75 C-13.19103399 0.12735599 -6.44514891 -2.32025361 0 0 Z " fill="#1B1B1B" transform="translate(96,101)"/>
<path d="M0 0 C0.99 0.495 0.99 0.495 2 1 C2 1.66 2 2.32 2 3 C2.99 3.495 2.99 3.495 4 4 C-1.54513926 12.96119926 -7.73179131 20.43400431 -15 28 C-15.57105469 28.65742188 -16.14210938 29.31484375 -16.73046875 29.9921875 C-26.58611229 40.98794405 -42.63816933 47.73480245 -57 50 C-59.8616142 50.06031668 -62.69423052 50.06826563 -65.55395508 50.02172852 C-66.82789124 50.0073172 -66.82789124 50.0073172 -68.12756348 49.99261475 C-70.9249731 49.95972596 -73.72222158 49.91935527 -76.51953125 49.87890625 C-78.46294086 49.85459524 -80.40635637 49.83075217 -82.34977722 49.80735779 C-87.45765932 49.74461451 -92.56543648 49.6755203 -97.67321777 49.60510254 C-102.88821648 49.53433089 -108.10328942 49.46956681 -113.31835938 49.40429688 C-123.5456545 49.27541032 -133.77284883 49.13981417 -144 49 C-144 48.67 -144 48.34 -144 48 C-143.04803238 47.99635437 -142.09606476 47.99270874 -141.11524963 47.98895264 C-132.06991909 47.95174106 -123.0249208 47.8936887 -113.97984409 47.81609726 C-109.3315207 47.77686891 -104.68337977 47.7445613 -100.03491211 47.72900391 C-95.53479576 47.71367277 -91.03518192 47.67894366 -86.53529167 47.63169098 C-84.83286894 47.61704452 -83.13037439 47.60896881 -81.42788887 47.60811615 C-56.49196158 47.58310668 -33.39277387 40.57531726 -15 23 C-8.64616113 16.06400312 -3.22379768 8.90382217 0 0 Z " fill="#292829" transform="translate(159,161)"/>
<path d="M0 0 C-2.49590948 2.49590948 -4.79969365 3.26415985 -8.08203125 4.57421875 C-9.33793443 5.08257409 -10.5937922 5.59104161 -11.84960938 6.09960938 C-13.81174305 6.88722471 -15.77477809 7.67247529 -17.73901367 8.45483398 C-26.84833077 12.09366397 -35.45978955 16.15895269 -44 21 C-43.3908374 20.97953613 -42.7816748 20.95907227 -42.15405273 20.93798828 C-36.72441194 20.77921606 -32.21031354 21.48427243 -27 23 C-27.495 24.485 -27.495 24.485 -28 26 C-28.95519531 25.97679688 -29.91039062 25.95359375 -30.89453125 25.9296875 C-38.13028603 25.82868993 -44.81169887 26.03121769 -51.92578125 27.5625 C-54 28 -54 28 -56 28 C-58.34570085 28.97063483 -60.68020619 29.96898053 -63 31 C-60.93036135 24.60293509 -57.55742478 20.57801098 -51.6875 17.5 C-47.06279586 15.35531092 -42.32331805 13.50502333 -37.5625 11.6875 C-36.86406982 11.42066406 -36.16563965 11.15382813 -35.44604492 10.87890625 C-32.49301358 9.78559054 -30.17495195 9 -27 9 C-27 8.01 -27 7.02 -27 6 C-25.68 6 -24.36 6 -23 6 C-22.67 4.68 -22.34 3.36 -22 2 C-19.27123692 1.66304138 -16.54206837 1.33031571 -13.8125 1 C-13.04357422 0.90460937 -12.27464844 0.80921875 -11.48242188 0.7109375 C-7.63071189 0.24807106 -3.88829149 -0.12467468 0 0 Z " fill="#F1F1F1" transform="translate(177,34)"/>
<path d="M0 0 C0.495 1.485 0.495 1.485 1 3 C-6.59 7.95 -14.18 12.9 -22 18 C-14.55070536 16.40555134 -14.55070536 16.40555134 -7.10400391 14.79907227 C2.53121621 12.7642799 11.78709665 11.83110005 21.625 11.9375 C22.84509766 11.94426758 22.84509766 11.94426758 24.08984375 11.95117188 C26.05992898 11.96276061 28.02997536 11.98068603 30 12 C27.34291117 14.1324026 24.95393619 15.56970244 21.75390625 16.7265625 C20.92665039 17.03182861 20.09939453 17.33709473 19.24707031 17.65161133 C18.36116211 17.97282959 17.47525391 18.29404785 16.5625 18.625 C7.98387263 21.80407656 -0.43814137 25.24486959 -8.80639648 28.94189453 C-14.12181031 31.27111489 -19.46118376 33.26600122 -25 35 C-24 32 -24 32 -20.88671875 30.23828125 C-19.49266731 29.5840933 -18.09238761 28.94308075 -16.6875 28.3125 C-15.57387085 27.80009766 -15.57387085 27.80009766 -14.43774414 27.27734375 C-5.42888194 23.19096487 3.77928344 19.57617191 13 16 C-4.47766385 16.98938916 -20.1379256 19.21316348 -36 27 C-34.51711564 23.28050001 -32.5598185 21.65637473 -29.3125 19.375 C-28.3328125 18.68535156 -27.353125 17.99570312 -26.34375 17.28515625 C-17.68258294 11.33973464 -8.96079227 5.48619935 0 0 Z " fill="#1A1A1A" transform="translate(162,19)"/>
<path d="M0 0 C0.495 0.99 0.495 0.99 1 2 C1.66 2 2.32 2 3 2 C1.29400549 17.09932451 -3.10367695 37.17663597 -15.6015625 47.296875 C-27.09379006 55.33670498 -40.62979329 54.356715 -54 54 C-51.83322193 44.61796092 -49.64080064 35.2628083 -47 26 C-46.67 26.66 -46.34 27.32 -46 28 C-45.34 28.33 -44.68 28.66 -44 29 C-45.65 35.93 -47.3 42.86 -49 50 C-30.22071806 50.27859589 -30.22071806 50.27859589 -14.75 41 C-5.78589768 29.08983035 -3.24205031 14.21046598 0 0 Z " fill="#1C1C1C" transform="translate(123,121)"/>
<path d="M0 0 C11.14892112 3.42483198 11.14892112 3.42483198 14 6 C14.9978791 20.6597512 7.83917829 34.96105819 2 48 C1.67 48 1.34 48 1 48 C0.9727585 46.58344207 0.95349533 45.16672955 0.9375 43.75 C0.92589844 42.96109375 0.91429687 42.1721875 0.90234375 41.359375 C1 39 1 39 1.49560547 37.1262207 C2.40652279 33.28634708 2.19038909 29.36666535 2.1875 25.4375 C2.18814453 24.54160156 2.18878906 23.64570313 2.18945312 22.72265625 C2.14408755 17.03133915 1.737602 11.65529746 0.4375 6.09375 C0 4 0 4 0 0 Z " fill="#F4F4F4" transform="translate(162,110)"/>
<path d="M0 0 C-1 2 -1 2 -2.9675293 2.68603516 C-5.86984687 3.35745263 -8.77250512 4.0104924 -11.6875 4.625 C-12.75500488 4.85010254 -13.82250977 5.07520508 -14.92236328 5.30712891 C-40.44231731 10.27884135 -40.44231731 10.27884135 -49 6 C-48.67 5.01 -48.34 4.02 -48 3 C-44.98453475 1.78323332 -42.12591342 0.86400736 -39 0 C-37.73285156 -0.35578125 -36.46570313 -0.7115625 -35.16015625 -1.078125 C-21.82880576 -4.70013821 -13.13211238 -4.18434306 0 0 Z " fill="#F4F4F4" transform="translate(156,92)"/>
<path d="M0 0 C-0.33 0.99 -0.66 1.98 -1 3 C-2.32 3 -3.64 3 -5 3 C-5 3.99 -5 4.98 -5 6 C-8.37140024 7.32187995 -11.74768941 8.63080245 -15.125 9.9375 C-16.07632813 10.31068359 -17.02765625 10.68386719 -18.0078125 11.06835938 C-23.29216222 13.10503583 -28.25642165 15 -34 15 C-35.52837312 16.7968711 -36.97344728 18.66504905 -38.375 20.5625 C-38.778396 21.1080957 -39.18179199 21.65369141 -39.59741211 22.21582031 C-42.37173945 26.01398644 -44.82341125 29.83609109 -47 34 C-47.66 34 -48.32 34 -49 34 C-49.91457003 28.43842552 -50.32086397 24.324335 -48 19 C-47.27941406 18.92652344 -46.55882813 18.85304688 -45.81640625 18.77734375 C-42.24067533 17.79042218 -40.59272088 16.12743517 -37.9375 13.5625 C-31.1011236 7 -31.1011236 7 -27 7 C-23.74439425 5.8154661 -20.51798726 4.57318825 -17.29296875 3.30859375 C-4.65569196 -1.55189732 -4.65569196 -1.55189732 0 0 Z " fill="#C6C6C6" transform="translate(155,37)"/>
<path d="M0 0 C0.99 0.33 1.98 0.66 3 1 C4.18324935 3.44008386 5.18284934 5.7819496 6.125 8.3125 C6.38925781 8.98990234 6.65351563 9.66730469 6.92578125 10.36523438 C9.25119604 16.40304995 10.12256187 20.76331812 10.0625 27.25 C10.05347656 28.51328125 10.04445312 29.7765625 10.03515625 31.078125 C10.02355469 32.04234375 10.01195312 33.0065625 10 34 C6.52276264 32.74433095 3.90617542 31.26656844 1 29 C0.96406738 29.67369629 0.92813477 30.34739258 0.89111328 31.04150391 C0.4143168 37.88430627 -0.87835346 43.90730751 -3.125 50.375 C-3.43123291 51.27822998 -3.73746582 52.18145996 -4.05297852 53.11206055 C-6.65350458 60.53220175 -9.90460592 67.2905246 -14 74 C-14.66 74 -15.32 74 -16 74 C-17.125 68.375 -17.125 68.375 -16 65 C-15.01 65.33 -14.02 65.66 -13 66 C-7.28956436 53.03923596 -2 40.36955868 -2 26 C-6.29 24.02 -10.58 22.04 -15 20 C-15.33 20.66 -15.66 21.32 -16 22 C-15.67 20.68 -15.34 19.36 -15 18 C-11.33234625 18.59387276 -8.42232972 19.61116214 -5.125 21.3125 C-4.26390625 21.7559375 -3.4028125 22.199375 -2.515625 22.65625 C0.69771839 24.37269429 3.85822005 26.15591177 7 28 C6.08287448 19.63636276 4.27388905 12.35117411 1.0234375 4.58203125 C0 2 0 2 0 0 Z " fill="#101010" transform="translate(177,90)"/>
<path d="M0 0 C0.33 0 0.66 0 1 0 C1.50710303 4.80842339 -0.16069349 7.67694029 -2.5 11.8125 C-2.83386719 12.40998047 -3.16773437 13.00746094 -3.51171875 13.62304688 C-4.33172633 15.08734612 -5.16459312 16.54443137 -6 18 C-5.67 18 -5.34 18 -5 18 C-5.1875 21.25 -5.1875 21.25 -6 25 C-6.74378906 25.59039062 -7.48757812 26.18078125 -8.25390625 26.7890625 C-11.62747727 29.50519507 -13.50964989 32.46651582 -15.75 36.125 C-16.14832031 36.75792969 -16.54664062 37.39085937 -16.95703125 38.04296875 C-18.38678982 40.32573582 -19.79469477 42.58938954 -21 45 C-21.66 45 -22.32 45 -23 45 C-23.33452052 37.56621057 -23.13902852 31.80122845 -20 25 C-19.34 25.33 -18.68 25.66 -18 26 C-17.5875 25.32195312 -17.175 24.64390625 -16.75 23.9453125 C-13.10114089 18.0647851 -9.23663946 12.5990208 -4.796875 7.2890625 C-2.91472271 4.98969194 -2.91472271 4.98969194 -1.328125 2.2109375 C-0.88984375 1.48132812 -0.4515625 0.75171875 0 0 Z " fill="#F0F0F0" transform="translate(84,48)"/>
<path d="M0 0 C0.86496094 0.01804688 1.72992188 0.03609375 2.62109375 0.0546875 C3.26175781 0.07789063 3.90242188 0.10109375 4.5625 0.125 C0.80188761 4.11526811 -3.18767931 7.25686699 -7.6875 10.375 C-11.74107693 13.0373225 -11.74107693 13.0373225 -15.4375 16.125 C-17.2247057 16.27635944 -19.01911876 16.34675778 -20.8125 16.375 C-21.78960937 16.40078125 -22.76671875 16.4265625 -23.7734375 16.453125 C-26.4375 16.125 -26.4375 16.125 -28.2890625 14.609375 C-28.85753906 13.87460938 -28.85753906 13.87460938 -29.4375 13.125 C-28.4375 10.125 -28.4375 10.125 -25.0859375 8.15234375 C-23.66658967 7.44533278 -22.24181736 6.74913285 -20.8125 6.0625 C-19.76255859 5.5355957 -19.76255859 5.5355957 -18.69140625 4.99804688 C-12.62949326 2.02332334 -6.85629929 -0.18784382 0 0 Z " fill="#F2F2F2" transform="translate(137.4375,60.875)"/>
<path d="M0 0 C1.22329074 3.66987221 0.88021006 6.33967822 0.5625 10.1875 C0.46066406 11.45980469 0.35882813 12.73210937 0.25390625 14.04296875 C0.17011719 15.01878906 0.08632812 15.99460937 0 17 C0.99 16.01 1.98 15.02 3 14 C2.55221637 18.92561993 0.38575826 22.50195894 -3 26 C-6.2219207 28.01370044 -9.15997773 29 -13 29 C-13 29.66 -13 30.32 -13 31 C-14.98 31 -16.96 31 -19 31 C-19.99 28.69 -20.98 26.38 -22 24 C-21.34 24 -20.68 24 -20 24 C-19.67 23.34 -19.34 22.68 -19 22 C-19 24.31 -19 26.62 -19 29 C-18.34 29 -17.68 29 -17 29 C-16.76023437 28.13890625 -16.52046875 27.2778125 -16.2734375 26.390625 C-14.86084558 22.62949068 -13.04482451 19.94963507 -10.625 16.75 C-9.85414062 15.71359375 -9.08328125 14.6771875 -8.2890625 13.609375 C-6.20893477 11.23817138 -4.90565989 10.08796398 -2 9 C-1.91773332 5.95613276 -2.02391783 3.92824652 -3 1 C-2.01 0.67 -1.02 0.34 0 0 Z " fill="#2C2C2C" transform="translate(80,64)"/>
<path d="M0 0 C0.66 0.99 1.32 1.98 2 3 C1.2575 3.515625 0.515 4.03125 -0.25 4.5625 C-3.53628545 7.47534392 -4.98763759 10.12433906 -7 14 C-5.906875 13.319375 -4.81375 12.63875 -3.6875 11.9375 C-1.82421875 10.77734375 -1.82421875 10.77734375 0 10 C0.99 10.33 1.98 10.66 3 11 C4.2375 10.690625 5.475 10.38125 6.75 10.0625 C13.4026533 8.41864371 20.19800041 8.83868776 27 9 C23.58999526 12.74926542 19.71983294 15.3298509 15.5 18.0625 C9.63977582 21.87336005 9.63977582 21.87336005 4 26 C6.97 26.33 9.94 26.66 13 27 C13 27.33 13 27.66 13 28 C8.05 28 3.1 28 -2 28 C0.77038083 25.22961917 2.98426518 23.16248184 6.109375 20.984375 C6.86347656 20.45585938 7.61757812 19.92734375 8.39453125 19.3828125 C9.17183594 18.84398438 9.94914062 18.30515625 10.75 17.75 C11.54277344 17.19570312 12.33554688 16.64140625 13.15234375 16.0703125 C15.09908998 14.70993562 17.04833548 13.35330684 19 12 C6.7213345 11.60193853 -2.48571466 15.94736864 -13 22 C-14.32790646 22.67741174 -15.65930156 23.34827159 -17 24 C-17 21.36 -17 18.72 -17 16 C-16.67 16 -16.34 16 -16 16 C-16 17.65 -16 19.3 -16 21 C-15.34 21 -14.68 21 -14 21 C-13.72671875 20.26523438 -13.4534375 19.53046875 -13.171875 18.7734375 C-10.16428551 11.6554757 -5.10604608 5.71390871 0 0 Z " fill="#101010" transform="translate(122,50)"/>
<path d="M0 0 C0.33 0 0.66 0 1 0 C0.85904936 1.6254308 0.71207913 3.25034051 0.5625 4.875 C0.48128906 5.77992187 0.40007813 6.68484375 0.31640625 7.6171875 C0 10 0 10 -1 12 C-1.66 12 -2.32 12 -3 12 C-3.33 14.31 -3.66 16.62 -4 19 C-4.99 18.67 -5.98 18.34 -7 18 C-8.88391785 21.26545761 -9.49287967 24.28111761 -10 28 C-10.66 28 -11.32 28 -12 28 C-12.33 26.68 -12.66 25.36 -13 24 C-13.24234375 24.62648438 -13.4846875 25.25296875 -13.734375 25.8984375 C-14.23710938 27.12433594 -14.23710938 27.12433594 -14.75 28.375 C-15.07484375 29.18710938 -15.3996875 29.99921875 -15.734375 30.8359375 C-17.22763051 33.38922008 -18.40874396 33.73270579 -21 35 C-24.18801318 40.71134408 -24.6122047 47.5946915 -25 54 C-25.33 54 -25.66 54 -26 54 C-27.01513663 47.429048 -27.5563737 41.28493826 -25 35 C-22.5625 32.1875 -22.5625 32.1875 -20 30 C-17.56085875 27.10430154 -16.15890851 24.27851885 -14.8125 20.75 C-14.46832031 19.85796875 -14.12414063 18.9659375 -13.76953125 18.046875 C-13.51558594 17.37140625 -13.26164062 16.6959375 -13 16 C-11.68 16 -10.36 16 -9 16 C-6.03 10.72 -3.06 5.44 0 0 Z " fill="#131313" transform="translate(61,76)"/>
<path d="M0 0 C0.495 1.485 0.495 1.485 1 3 C-6.59 7.95 -14.18 12.9 -22 18 C-14.28079021 16.35892933 -14.28079021 16.35892933 -6.56347656 14.70898438 C-5.11666504 14.40444336 -5.11666504 14.40444336 -3.640625 14.09375 C-2.16384277 13.77954102 -2.16384277 13.77954102 -0.65722656 13.45898438 C2 13 2 13 6 13 C6 13.66 6 14.32 6 15 C7.32 15.33 8.64 15.66 10 16 C8.75347656 16.08636719 7.50695312 16.17273438 6.22265625 16.26171875 C-8.77119131 17.44368954 -22.40635808 20.3267576 -36 27 C-34.51711564 23.28050001 -32.5598185 21.65637473 -29.3125 19.375 C-28.3328125 18.68535156 -27.353125 17.99570312 -26.34375 17.28515625 C-17.68258294 11.33973464 -8.96079227 5.48619935 0 0 Z " fill="#292929" transform="translate(162,19)"/>
<path d="M0 0 C2.0625 0.4375 2.0625 0.4375 4 1 C4.33 2.32 4.66 3.64 5 5 C3.02 5.33 1.04 5.66 -1 6 C-0.505 6.94875 -0.01 7.8975 0.5 8.875 C2 12 2 12 2 14 C0.2984375 13.505 0.2984375 13.505 -1.4375 13 C-4.54376639 11.95495727 -4.54376639 11.95495727 -6 12 C-5.34 14.97 -4.68 17.94 -4 21 C-9.62917348 20.59791618 -12.00386479 18.71069698 -16 15 C-12.75683286 8.51366572 -7.21997591 4.47586889 -1 1 C-0.67 0.67 -0.34 0.34 0 0 Z " fill="#303030" transform="translate(56,119)"/>
<path d="M0 0 C0.66 0 1.32 0 2 0 C2.6248151 8.92593005 0.61003693 16.64582685 -1.73535156 25.17089844 C-2.38022315 27.51901864 -3.00390208 29.87205451 -3.625 32.2265625 C-4.02742588 33.72428666 -4.43102869 35.22169519 -4.8359375 36.71875 C-5.02247894 37.42076538 -5.20902039 38.12278076 -5.4012146 38.84606934 C-6.76814291 43.76814291 -6.76814291 43.76814291 -9 46 C-9.66 45.67 -10.32 45.34 -11 45 C-10.44339744 38.84008745 -9.42545472 33.18106485 -7.71484375 27.24609375 C-7.49429825 26.45977066 -7.27375275 25.67344757 -7.04652405 24.86329651 C-6.35011346 22.38611282 -5.644001 19.91182245 -4.9375 17.4375 C-4.45963823 15.74432344 -3.98241884 14.05096544 -3.50585938 12.35742188 C-2.34464554 8.23614922 -1.17473074 4.11743919 0 0 Z " fill="#EAE9EA" transform="translate(34,134)"/>
<path d="M0 0 C0 0.33 0 0.66 0 1 C1.65 1.33 3.3 1.66 5 2 C5 2.33 5 2.66 5 3 C-17.77 3 -40.54 3 -64 3 C-63.67 2.34 -63.34 1.68 -63 1 C-41.99303752 0.32954606 -21.01985367 -0.17489638 0 0 Z " fill="#F5F4F5" transform="translate(91,205)"/>
<path d="M0 0 C0 0.33 0 0.66 0 1 C-0.76143311 1.17128418 -1.52286621 1.34256836 -2.30737305 1.51904297 C-5.76839034 2.30011217 -9.22794317 3.08748839 -12.6875 3.875 C-13.88568359 4.14441406 -15.08386719 4.41382812 -16.31835938 4.69140625 C-17.47529297 4.95566406 -18.63222656 5.21992187 -19.82421875 5.4921875 C-21.41882935 5.85352783 -21.41882935 5.85352783 -23.0456543 6.22216797 C-25.83695023 6.9570716 -28.39635642 7.75277217 -31 9 C-31.36716494 10.3244164 -31.70021601 11.65872507 -32 13 C-33.890625 14.30859375 -33.890625 14.30859375 -36.25 15.4375 C-40.29430951 17.51448192 -42.99706392 19.6095883 -46 23 C-46.77582699 18.00022606 -46.77582699 18.00022606 -46 15 C-43.3845341 12.32270275 -40.29071033 10.73456117 -37 9 C-35.93265625 8.35417969 -35.93265625 8.35417969 -34.84375 7.6953125 C-29.31594786 4.56159368 -23.46649383 2.80470451 -17.375 1.125 C-16.17544678 0.78359985 -16.17544678 0.78359985 -14.95166016 0.43530273 C-9.57009399 -0.96368232 -5.47139101 -1.01414799 0 0 Z " fill="#2D2D2D" transform="translate(139,87)"/>
<path d="M0 0 C1.0625 1.875 1.0625 1.875 2 4 C1.67 4.66 1.34 5.32 1 6 C2.65 5.67 4.3 5.34 6 5 C4.3125 6.5625 4.3125 6.5625 2 8 C-0.64453125 7.58984375 -0.64453125 7.58984375 -3 7 C-8.43208812 13.33151883 -13.31059602 19.49141401 -17 27 C-17.66 27 -18.32 27 -19 27 C-19.91457003 21.43842552 -20.32086397 17.324335 -18 12 C-17.28070313 11.92652344 -16.56140625 11.85304688 -15.8203125 11.77734375 C-12.23664456 10.78960148 -10.5499683 9.1188535 -7.875 6.5625 C-5.29373122 4.11853275 -2.96243447 1.97495631 0 0 Z " fill="#3B3B3B" transform="translate(125,44)"/>
<path d="M0 0 C-2.55128897 2.55128897 -5.01932217 3.38254933 -8.36328125 4.75 C-8.99227829 5.0087793 -9.62127533 5.26755859 -10.26933289 5.53417969 C-12.28182655 6.36083446 -14.2970966 7.18046835 -16.3125 8 C-17.6583896 8.55162859 -19.00409496 9.10370692 -20.34960938 9.65625 C-25.55781832 11.79230694 -30.77091275 13.91549372 -36 16 C-36 15.34 -36 14.68 -36 14 C-35.01 13.34 -34.02 12.68 -33 12 C-33 11.34 -33 10.68 -33 10 C-31.02 9.67 -29.04 9.34 -27 9 C-27 8.01 -27 7.02 -27 6 C-25.68 6 -24.36 6 -23 6 C-22.67 4.68 -22.34 3.36 -22 2 C-19.27123692 1.66304138 -16.54206837 1.33031571 -13.8125 1 C-12.65911133 0.85691406 -12.65911133 0.85691406 -11.48242188 0.7109375 C-7.63071189 0.24807106 -3.88829149 -0.12467468 0 0 Z " fill="#F1F1F1" transform="translate(177,34)"/>
<path d="M0 0 C0.66 0.33 1.32 0.66 2 1 C0.35 3.64 -1.3 6.28 -3 9 C-3.33 8.01 -3.66 7.02 -4 6 C-16.0084751 13.36810935 -16.0084751 13.36810935 -25 24 C-25.99 24.66 -26.98 25.32 -28 26 C-27.96744792 24.01432292 -27.93489583 22.02864583 -27.90234375 20.04296875 C-27.91736783 17.79694539 -27.91736783 17.79694539 -29 15 C-28.40206327 12.64811553 -27.74118205 10.31074405 -27 8 C-26.34 8 -25.68 8 -25 8 C-24.67 10.31 -24.34 12.62 -24 15 C-19.99361955 15 -19.31517688 13.64447596 -16.5 10.875 C-11.54179552 6.26678642 -6.32112623 2.52406082 0 0 Z " fill="#191919" transform="translate(113,27)"/>
<path d="M0 0 C0.33 0.66 0.66 1.32 1 2 C-4.8290219 11.60827786 -11.61716126 17.00008951 -21 23 C-21.66 22.67 -22.32 22.34 -23 22 C-21.5523615 20.03996712 -20.09507918 18.08878784 -18.62109375 16.1484375 C-17.34275585 14.45425474 -16.10175966 12.73189599 -14.875 11 C-10.96510992 6.29774017 -5.12015833 3.21745196 0 0 Z " fill="#EDEDED" transform="translate(107,33)"/>
<path d="M0 0 C0.33 0.66 0.66 1.32 1 2 C1.66 2 2.32 2 3 2 C1.66299491 13.83349278 -0.99632552 29.58672315 -9 39 C-11.15234375 39.7265625 -11.15234375 39.7265625 -13 40 C-11.67066339 36.57629871 -10.1825018 33.28463564 -8.58203125 29.98046875 C-5.81066893 23.91766841 -4.19064117 17.78909506 -2.6875 11.3125 C-2.29208008 9.66991211 -2.29208008 9.66991211 -1.88867188 7.99414062 C-1.24920098 5.33161637 -0.61984171 2.66714903 0 0 Z " fill="#161616" transform="translate(123,121)"/>
<path d="M0 0 C3.49107379 1.16369126 3.85222763 1.88973538 5.6875 4.9375 C6.12449219 5.64777344 6.56148437 6.35804687 7.01171875 7.08984375 C8 9 8 9 8 11 C-4 9.5 -4 9.5 -9 7 C-10.4465242 6.84932786 -11.8987934 6.75138964 -13.3515625 6.68359375 C-14.20234375 6.64169922 -15.053125 6.59980469 -15.9296875 6.55664062 C-16.81914062 6.51732422 -17.70859375 6.47800781 -18.625 6.4375 C-19.5221875 6.39431641 -20.419375 6.35113281 -21.34375 6.30664062 C-23.56234283 6.20043139 -25.7810488 6.09838806 -28 6 C-26 4 -26 4 -23.70922852 3.75708008 C-22.77522217 3.76118896 -21.84121582 3.76529785 -20.87890625 3.76953125 C-19.35233398 3.77243164 -19.35233398 3.77243164 -17.79492188 3.77539062 C-16.72822266 3.78763672 -15.66152344 3.79988281 -14.5625 3.8125 C-13.49966797 3.81314453 -12.43683594 3.81378906 -11.34179688 3.81445312 C-3.42137729 3.8595409 -3.42137729 3.8595409 0 5 C-0.185625 4.360625 -0.37125 3.72125 -0.5625 3.0625 C-0.706875 2.381875 -0.85125 1.70125 -1 1 C-0.67 0.67 -0.34 0.34 0 0 Z " fill="#393838" transform="translate(181,82)"/>
<path d="M0 0 C1.41898766 2.64877696 2.31911019 5.08014819 3 8 C1.98421875 8.68964844 0.9684375 9.37929688 -0.078125 10.08984375 C-15.5059959 19.51423925 -15.5059959 19.51423925 -28 32 C-28.66 31.67 -29.32 31.34 -30 31 C-28.02 27.37 -26.04 23.74 -24 20 C-23.34 20.66 -22.68 21.32 -22 22 C-12.39948165 15.93300577 -4.93253119 10.45791468 0 0 Z " fill="#232323" transform="translate(108,33)"/>
<path d="M0 0 C-3.41000474 3.74926542 -7.28016706 6.3298509 -11.5 9.0625 C-17.36022418 12.87336005 -17.36022418 12.87336005 -23 17 C-20.03 17.33 -17.06 17.66 -14 18 C-14 18.33 -14 18.66 -14 19 C-18.95 19 -23.9 19 -29 19 C-26.22961917 16.22961917 -24.01573482 14.16248184 -20.890625 11.984375 C-20.13652344 11.45585938 -19.38242188 10.92734375 -18.60546875 10.3828125 C-17.82816406 9.84398438 -17.05085937 9.30515625 -16.25 8.75 C-15.45722656 8.19570312 -14.66445312 7.64140625 -13.84765625 7.0703125 C-11.90091002 5.70993562 -9.95166452 4.35330684 -8 3 C-9.4387612 2.98305346 -10.87758023 2.97097015 -12.31640625 2.9609375 C-13.11763916 2.95368652 -13.91887207 2.94643555 -14.74438477 2.93896484 C-17.13251939 2.93527555 -17.13251939 2.93527555 -19.9375 3.625 C-20.9584375 3.810625 -20.9584375 3.810625 -22 4 C-22.66 3.34 -23.32 2.68 -24 2 C-15.95075394 -0.25943749 -8.29683005 -0.19676277 0 0 Z " fill="#141414" transform="translate(149,59)"/>
<path d="M0 0 C-1.13888672 0.69222656 -1.13888672 0.69222656 -2.30078125 1.3984375 C-9.25982808 5.80421757 -9.25982808 5.80421757 -12.875 12.875 C-13.04386719 13.70515625 -13.21273437 14.5353125 -13.38671875 15.390625 C-14.45440102 19.93337506 -16.80005702 23.91314941 -19 28 C-19.33 28 -19.66 28 -20 28 C-19.52877252 21.0886636 -16.79363994 15.27795839 -14 9 C-15.32 9 -16.64 9 -18 9 C-13.9787853 4.61322033 -6.34469003 -3.17234501 0 0 Z " fill="#1E1E1E" transform="translate(128,30)"/>
<path d="M0 0 C-0.99 0.33 -1.98 0.66 -3 1 C-2.505 5.455 -2.505 5.455 -2 10 C-2.66 10.33 -3.32 10.66 -4 11 C-4.495 6.545 -4.495 6.545 -5 2 C-16.80802941 4.76750689 -27.05968096 11.22391296 -37 18 C-37.66 17.67 -38.32 17.34 -39 17 C-11.95482866 -4.30373832 -11.95482866 -4.30373832 0 0 Z " fill="#3F3F3F" transform="translate(96,101)"/>
<path d="M0 0 C-0.33 0.99 -0.66 1.98 -1 3 C-1.95519531 2.97679687 -2.91039062 2.95359375 -3.89453125 2.9296875 C-11.85840169 2.8185268 -19.19514341 3.18265294 -27 5 C-25.21875 1.1484375 -25.21875 1.1484375 -23.25 -0.1875 C-15.33624901 -3.04524341 -7.89991919 -2.21752118 0 0 Z " fill="#E8E8E8" transform="translate(150,57)"/>
<path d="M0 0 C0.33 0 0.66 0 1 0 C0.60294574 7.94108524 -1.26288182 16.57471684 -6.52734375 22.80859375 C-8.29438335 24.2381616 -9.77962767 24.61717718 -12 25 C-11.37083701 22.06254156 -10.4280828 19.67190403 -9.00390625 17.03125 C-8.61009766 16.29519531 -8.21628906 15.55914062 -7.81054688 14.80078125 C-7.39869141 14.04152344 -6.98683594 13.28226563 -6.5625 12.5 C-5.750971 10.9897612 -4.93976252 9.4793501 -4.12890625 7.96875 C-3.76869385 7.30294922 -3.40848145 6.63714844 -3.03735352 5.95117188 C-1.99108999 3.98324105 -0.98845223 1.99750302 0 0 Z " fill="#EAE9EA" transform="translate(161,149)"/>
<path d="M0 0 C0.83144531 0.00451172 1.66289062 0.00902344 2.51953125 0.01367188 C4.55471897 0.02536836 6.58986923 0.04330065 8.625 0.0625 C5.23507185 2.95116058 1.73677313 4.32012054 -2.4375 5.8125 C-3.66597656 6.26109375 -4.89445313 6.7096875 -6.16015625 7.171875 C-9.375 8.0625 -9.375 8.0625 -12.375 7.0625 C-11.715 7.0625 -11.055 7.0625 -10.375 7.0625 C-10.375 6.4025 -10.375 5.7425 -10.375 5.0625 C-9.715 4.7325 -9.055 4.4025 -8.375 4.0625 C-10.685 3.7325 -12.995 3.4025 -15.375 3.0625 C-15.375 2.4025 -15.375 1.7425 -15.375 1.0625 C-10.20182579 -0.00059567 -5.25130664 -0.05443938 0 0 Z " fill="#212121" transform="translate(183.375,30.9375)"/>
<path d="M0 0 C1.875 0.1875 1.875 0.1875 4 1 C6.32600516 5.24536606 6.30127031 9.46635924 6.25 14.1875 C6.25773438 14.91130859 6.26546875 15.63511719 6.2734375 16.38085938 C6.25347222 21.74652778 6.25347222 21.74652778 4 24 C1.12760005 21.12760005 1.57921797 18.10749401 1.4375 14.25 C1.22953228 9.41806908 0.90678061 4.76621874 0 0 Z " fill="#FBFBFB" transform="translate(125,101)"/>
<path d="M0 0 C0.66 0 1.32 0 2 0 C1.88659914 4.63912609 1.69875355 8.7071668 -1.1875 12.5 C-4.27191716 15.24170414 -5.9345611 15.81090982 -10 16 C-7.31439371 10.21561722 -4.37921743 4.70453073 0 0 Z " fill="#EFEFEF" transform="translate(75,76)"/>
<path d="M0 0 C0 0.66 0 1.32 0 2 C-1.65848177 3.01351664 -3.32665961 4.01120795 -5 5 C-5.680625 5.70125 -6.36125 6.4025 -7.0625 7.125 C-9.10057007 9.09732587 -10.23837416 9.60548202 -13 10 C-13 10.66 -13 11.32 -13 12 C-14.95927063 13.7143618 -16.95880212 15.38405168 -19 17 C-17.83419093 8.85673663 -17.83419093 8.85673663 -14.6875 5.625 C-13.800625 5.08875 -12.91375 4.5525 -12 4 C-10.7625 3.1646875 -10.7625 3.1646875 -9.5 2.3125 C-6.35075954 0.65914876 -3.54651231 0 0 0 Z " fill="#E5E5E5" transform="translate(133,30)"/>
<path d="M0 0 C0.99 0.33 1.98 0.66 3 1 C4.18324935 3.44008386 5.18284934 5.7819496 6.125 8.3125 C6.38925781 8.98990234 6.65351563 9.66730469 6.92578125 10.36523438 C9.36543871 16.69967495 10.11194207 21.2834761 10 28 C8.68 28.33 7.36 28.66 6 29 C6.185625 27.0509375 6.185625 27.0509375 6.375 25.0625 C6.43530449 18.07723049 3.76608549 11.98949444 1.3125 5.5625 C0 2 0 2 0 0 Z " fill="#2D2D2D" transform="translate(177,90)"/>
<path d="M0 0 C3.875 1.875 3.875 1.875 5 3 C12.04878109 4.04105075 18.94923283 4.08874943 26.0625 4 C32.81774747 3.91603173 39.31428908 3.97266387 46 5 C42.14271504 7.5859391 38.14715593 7.23044394 33.69140625 7.1171875 C32.48580299 7.09387863 32.48580299 7.09387863 31.25584412 7.07009888 C29.5586998 7.03334833 27.86166922 6.99097287 26.16479492 6.94335938 C23.5752996 6.87533623 20.98661641 6.83914711 18.39648438 6.8046875 C16.74474368 6.76496857 15.09304703 6.72336415 13.44140625 6.6796875 C12.67043106 6.67218475 11.89945587 6.66468201 11.1051178 6.6569519 C6.17258876 6.47948424 3.41993844 5.6108522 0 2 C0 1.34 0 0.68 0 0 Z " fill="#2C2C2C" transform="translate(106,73)"/>
<path d="M0 0 C0.33 0 0.66 0 1 0 C1.04898438 1.07121094 1.09796875 2.14242187 1.1484375 3.24609375 C1.22345294 4.64325639 1.2990013 6.0403905 1.375 7.4375 C1.4059375 8.14455078 1.436875 8.85160156 1.46875 9.58007812 C1.57280629 11.39239188 1.77919892 13.19817988 2 15 C2.66 15.33 3.32 15.66 4 16 C3.01 16 2.02 16 1 16 C1 17.65 1 19.3 1 21 C0.67 21 0.34 21 0 21 C0 18.69 0 16.38 0 14 C-0.66 14 -1.32 14 -2 14 C-2 14.99 -2 15.98 -2 17 C-3.32 16.67 -4.64 16.34 -6 16 C-5.01 11.71 -4.02 7.42 -3 3 C-2.34 3 -1.68 3 -1 3 C-0.67 2.01 -0.34 1.02 0 0 Z " fill="#393839" transform="translate(36,120)"/>
<path d="M0 0 C0.33 0.66 0.66 1.32 1 2 C7.6 2 14.2 2 21 2 C20.67 2.99 20.34 3.98 20 5 C12.41 5 4.82 5 -3 5 C-1 1 -1 1 0 0 Z " fill="#F9F9F9" transform="translate(68,173)"/>
<path d="M0 0 C0.66 0.33 1.32 0.66 2 1 C1.5153125 1.49886719 1.030625 1.99773438 0.53125 2.51171875 C-4.68888833 8.10329 -8.59022098 13.90658104 -12.43359375 20.47265625 C-12.95050781 21.30667969 -13.46742187 22.14070313 -14 23 C-14.33 23 -14.66 23 -15 23 C-15.71122819 16.24333224 -15.71122819 16.24333224 -13.9453125 13.15625 C-10.12502709 8.61320789 -5.52239999 4.82083436 -1 1 C-0.67 0.67 -0.34 0.34 0 0 Z " fill="#EDEDED" transform="translate(122,48)"/>
<path d="M0 0 C0.66 0.66 1.32 1.32 2 2 C1.69340512 6.60544645 0.21214433 9.90647159 -2.0625 13.875 C-2.61035156 14.84179688 -3.15820312 15.80859375 -3.72265625 16.8046875 C-4.14417969 17.52914062 -4.56570312 18.25359375 -5 19 C-8 19 -8 19 -10 18 C-9.61328125 17.3709375 -9.2265625 16.741875 -8.828125 16.09375 C-5.62522465 10.82957715 -2.67313012 5.55188564 0 0 Z " fill="#EFEFEF" transform="translate(121,145)"/>
<path d="M0 0 C0.33 0 0.66 0 1 0 C0.50596529 9.05730307 -2.32226777 17.39370934 -5 26 C-5.66 26 -6.32 26 -7 26 C-6.59162973 20.18072368 -5.54115162 14.70205566 -4.0625 9.0625 C-3.89266602 8.39984131 -3.72283203 7.73718262 -3.54785156 7.05444336 C-2.73529547 4.05224205 -2.23624386 2.23624386 0 0 Z " fill="#111111" transform="translate(84,123)"/>
<path d="M0 0 C0.33 0 0.66 0 1 0 C0.85904936 1.6254308 0.71207913 3.25034051 0.5625 4.875 C0.48128906 5.77992187 0.40007813 6.68484375 0.31640625 7.6171875 C0 10 0 10 -1 12 C-1.66 12 -2.32 12 -3 12 C-3.33 14.31 -3.66 16.62 -4 19 C-6.475 18.01 -6.475 18.01 -9 17 C-8.06506561 15.10290012 -7.12693704 13.20737422 -6.1875 11.3125 C-5.66542969 10.25675781 -5.14335938 9.20101562 -4.60546875 8.11328125 C-3.16915616 5.32802302 -1.70320211 2.63044681 0 0 Z " fill="#0D0D0D" transform="translate(61,76)"/>
<path d="M0 0 C0.99 0 1.98 0 3 0 C4.32 3.63 5.64 7.26 7 11 C2.8333396 10.52651586 0.07115285 9.95303159 -3 7 C-3 6.34 -3 5.68 -3 5 C-2.34 4.67 -1.68 4.34 -1 4 C-0.34786708 1.97536745 -0.34786708 1.97536745 0 0 Z " fill="#ECECEC" transform="translate(45,129)"/>
<path d="M0 0 C3.3 0 6.6 0 10 0 C7.29954818 1.80030122 4.93322119 2.93377066 1.9375 4.125 C0.62072266 4.65480469 0.62072266 4.65480469 -0.72265625 5.1953125 C-3 6 -3 6 -5 6 C-4.67 6.99 -4.34 7.98 -4 9 C-6.64 8.67 -9.28 8.34 -12 8 C-12 7.34 -12 6.68 -12 6 C-8.04 4.68 -4.08 3.36 0 2 C0 1.34 0 0.68 0 0 Z " fill="#191919" transform="translate(148,79)"/>
<path d="M0 0 C0.99404438 2.98213315 1.05554146 4.44458538 0.75 7.5 C0.68296875 8.2734375 0.6159375 9.046875 0.546875 9.84375 C-0.09329518 12.36784958 -1.03100667 13.34858624 -3 15 C-3 14.01 -3 13.02 -3 12 C-6.9252025 15.70090521 -9.94580156 19.54959656 -13 24 C-13.33 23.34 -13.66 22.68 -14 22 C-12.76056233 20.20101037 -11.50803104 18.41103677 -10.25 16.625 C-9.55390625 15.62726563 -8.8578125 14.62953125 -8.140625 13.6015625 C-6.13277624 11.16136674 -4.90956826 10.08781156 -2 9 C-1.91773332 5.95613276 -2.02391783 3.92824652 -3 1 C-2.01 0.67 -1.02 0.34 0 0 Z " fill="#323232" transform="translate(80,64)"/>
<path d="M0 0 C0 0.99 0 1.98 0 3 C-1.90705137 4.60547115 -3.76995469 6.02632971 -5.8125 7.4375 C-9.41588579 9.9543525 -12.57034325 12.25747609 -15 16 C-15.66 15.67 -16.32 15.34 -17 15 C-15.02 11.37 -13.04 7.74 -11 4 C-10.34 4.66 -9.68 5.32 -9 6 C-6.03 4.02 -3.06 2.04 0 0 Z " fill="#303030" transform="translate(95,49)"/>
<path d="M0 0 C0 0.66 0 1.32 0 2 C1.32 2.33 2.64 2.66 4 3 C3.42556152 3.05534912 2.85112305 3.11069824 2.25927734 3.16772461 C-0.36902619 3.4221876 -2.99701018 3.67981811 -5.625 3.9375 C-6.52863281 4.02451172 -7.43226563 4.11152344 -8.36328125 4.20117188 C-12.94356654 4.65251386 -17.4698372 5.1647042 -22 6 C-22.33 5.34 -22.66 4.68 -23 4 C-19.91808296 3.32667007 -16.8342592 2.66251141 -13.75 2 C-12.87730469 1.80921875 -12.00460938 1.6184375 -11.10546875 1.421875 C-9.83896484 1.15117188 -9.83896484 1.15117188 -8.546875 0.875 C-7.77182617 0.70742188 -6.99677734 0.53984375 -6.19824219 0.3671875 C-4 0 -4 0 0 0 Z " fill="#434343" transform="translate(168,32)"/>
<path d="M0 0 C-2.28149325 1.75499481 -4.57956848 3.37430464 -7 4.9375 C-9.67479026 6.7764183 -11.79968625 8.63043135 -14 11 C-14 8.36 -14 5.72 -14 3 C-4.58997722 -1.77676538 -4.58997722 -1.77676538 0 0 Z " fill="#EBEBEB" transform="translate(107,99)"/>
<path d="M0 0 C0.95310059 0.01047363 1.90620117 0.02094727 2.88818359 0.03173828 C4.43505859 0.04140625 4.43505859 0.04140625 6.01318359 0.05126953 C7.63353516 0.07640625 7.63353516 0.07640625 9.28662109 0.10205078 C10.37458984 0.11107422 11.46255859 0.12009766 12.58349609 0.12939453 C15.27642261 0.15301669 17.96891365 0.18595522 20.66162109 0.22705078 C20.99162109 0.88705078 21.32162109 1.54705078 21.66162109 2.22705078 C15.8990208 3.28261529 10.5557135 3.17536716 4.72412109 2.78955078 C3.84949219 2.73734375 2.97486328 2.68513672 2.07373047 2.63134766 C-0.06402523 2.50284868 -2.2012656 2.36582437 -4.33837891 2.22705078 C-2.33837891 0.22705078 -2.33837891 0.22705078 0 0 Z " fill="#3F3E3E" transform="translate(157.33837890625,85.77294921875)"/>
<path d="M0 0 C-0.33 1.32 -0.66 2.64 -1 4 C-3.93229167 4.73307292 -6.86458333 5.46614583 -9.796875 6.19921875 C-10.85390625 6.46347656 -11.9109375 6.72773437 -13 7 C-13.85078125 7.21269531 -14.7015625 7.42539063 -15.578125 7.64453125 C-16.65320313 7.91330078 -16.65320313 7.91330078 -17.75 8.1875 C-19.35875 8.5896875 -19.35875 8.5896875 -21 9 C-18.45579765 5.98921383 -15.68308065 4.83397317 -12.0625 3.375 C-10.50208984 2.73691406 -10.50208984 2.73691406 -8.91015625 2.0859375 C-5.88890034 0.95854268 -3.23202617 0 0 0 Z " fill="#383737" transform="translate(165,65)"/>
<path d="M0 0 C0 0.99 0 1.98 0 3 C-1.72521463 3.39278091 -3.45546248 3.76349151 -5.1875 4.125 C-6.63189453 4.43824219 -6.63189453 4.43824219 -8.10546875 4.7578125 C-11.34552253 5.02891012 -13.11546285 4.42381175 -16 3 C-16 2.67 -16 2.34 -16 2 C-13.89829344 1.46932659 -11.79352402 0.95077143 -9.6875 0.4375 C-7.92986328 0.00244141 -7.92986328 0.00244141 -6.13671875 -0.44140625 C-3 -1 -3 -1 0 0 Z " fill="#383738" transform="translate(110,206)"/>
<path d="M0 0 C-1.53643852 3.68069887 -3.78150945 5.98775204 -6.625 8.75 C-7.85089844 9.94882813 -7.85089844 9.94882813 -9.1015625 11.171875 C-9.72804687 11.77515625 -10.35453125 12.3784375 -11 13 C-11.33 12.34 -11.66 11.68 -12 11 C-12.66 10.67 -13.32 10.34 -14 10 C-12.04653795 8.32731078 -10.08770186 6.66178419 -8.125 5 C-7.56941406 4.52304688 -7.01382813 4.04609375 -6.44140625 3.5546875 C-2.2265625 0 -2.2265625 0 0 0 Z " fill="#2C2B2C" transform="translate(150,181)"/>
<path d="M0 0 C3 1 3 1 4.6875 3.9375 C6 7 6 7 6 9 C-0.64615385 7.52307692 -0.64615385 7.52307692 -2.4375 4.875 C-2.7159375 3.946875 -2.7159375 3.946875 -3 3 C-2.01 2.01 -1.02 1.02 0 0 Z " fill="#D9D9D9" transform="translate(52,124)"/>
<path d="M0 0 C-3.47652039 2.96082171 -7.35678468 4.5449593 -11.5625 6.1875 C-12.23474609 6.46013672 -12.90699219 6.73277344 -13.59960938 7.01367188 C-16.54666423 8.18137285 -18.80156144 9 -22 9 C-18.84360534 6.45967273 -15.56709616 4.66506105 -11.9375 2.875 C-10.89464844 2.35679688 -9.85179687 1.83859375 -8.77734375 1.3046875 C-3.50963222 -1.16987741 -3.50963222 -1.16987741 0 0 Z " fill="#2B2B2B" transform="translate(149,20)"/>
<path d="M0 0 C0.66 0.99 1.32 1.98 2 3 C1.2575 3.53625 0.515 4.0725 -0.25 4.625 C-4.25926309 8.0875454 -6.79223585 12.21651101 -9 17 C-9.99 16.67 -10.98 16.34 -12 16 C-8.34880098 10.29014621 -4.51755454 5.05535865 0 0 Z " fill="#2C2C2C" transform="translate(122,50)"/>
<path d="M0 0 C0.99 0.33 1.98 0.66 3 1 C-0.07517084 13.66970387 -0.07517084 13.66970387 -2 19 C-2.99 19 -3.98 19 -5 19 C-4.80664062 18.29875 -4.61328125 17.5975 -4.4140625 16.875 C-2.874383 11.26507866 -1.38582343 5.64989553 0 0 Z " fill="#222222" transform="translate(174,127)"/>
<path d="M0 0 C-2.67355798 1.70537614 -5.3485496 3.40832303 -8.02734375 5.10546875 C-9.84074275 6.26118296 -11.64734731 7.4277671 -13.44140625 8.61328125 C-15.25742625 9.80055031 -17.12463568 10.90887894 -19 12 C-19.66 11.67 -20.32 11.34 -21 11 C-4.94352159 -1.64784053 -4.94352159 -1.64784053 0 0 Z " fill="#1F1F1F" transform="translate(78,107)"/>
<path d="M0 0 C5.08335725 0.15404113 7.35754718 3.02068432 10.64453125 6.50390625 C11.09183594 6.99761719 11.53914062 7.49132812 12 8 C11.01 8.99 10.02 9.98 9 11 C7.49703315 9.35687553 5.99769719 7.71042916 4.5 6.0625 C3.6646875 5.14597656 2.829375 4.22945313 1.96875 3.28515625 C0 1 0 1 0 0 Z " fill="#323131" transform="translate(170,73)"/>
<path d="M0 0 C0 0.99 0 1.98 0 3 C-2.52267991 4.68178661 -4.81091823 5.90106742 -7.5625 7.125 C-8.34753906 7.47820313 -9.13257813 7.83140625 -9.94140625 8.1953125 C-12 9 -12 9 -14 9 C-14 8.01 -14 7.02 -14 6 C-9.38 4.02 -4.76 2.04 0 0 Z " fill="#2E2E2E" transform="translate(172,36)"/>
<path d="M0 0 C0.83144531 0.00451172 1.66289062 0.00902344 2.51953125 0.01367188 C4.55471897 0.02536836 6.58986923 0.04330065 8.625 0.0625 C6.625 2.0625 6.625 2.0625 4.09375 2.22265625 C2.62421875 2.17431641 2.62421875 2.17431641 1.125 2.125 C-2.77504812 1.89127701 -2.77504812 1.89127701 -6.375 3.0625 C-7.91523996 3.13200541 -9.45834988 3.14702357 -11 3.125 C-12.22589844 3.11146484 -12.22589844 3.11146484 -13.4765625 3.09765625 C-14.41628906 3.08025391 -14.41628906 3.08025391 -15.375 3.0625 C-15.375 2.4025 -15.375 1.7425 -15.375 1.0625 C-10.20182579 -0.00059567 -5.25130664 -0.05443938 0 0 Z " fill="#101010" transform="translate(183.375,30.9375)"/>
<path d="M0 0 C1.32 0.33 2.64 0.66 4 1 C3.34 3.97 2.68 6.94 2 10 C1.01 10 0.02 10 -1 10 C-1.33 11.32 -1.66 12.64 -2 14 C-3.21065165 10.36804504 -2.62784815 8.93468371 -1.5625 5.3125 C-1.27503906 4.31863281 -0.98757812 3.32476562 -0.69140625 2.30078125 C-0.46324219 1.54152344 -0.23507813 0.78226563 0 0 Z " fill="#3B3A3B" transform="translate(24,156)"/>
<path d="M0 0 C0.33 0 0.66 0 1 0 C1 5.28 1 10.56 1 16 C0.01 15.34 -0.98 14.68 -2 14 C-2.36328125 11.50390625 -2.36328125 11.50390625 -2.3125 8.5625 C-2.30863281 7.59441406 -2.30476563 6.62632813 -2.30078125 5.62890625 C-2 3 -2 3 0 0 Z " fill="#EAEAEA" transform="translate(130,107)"/>
<path d="M0 0 C0.99 0 1.98 0 3 0 C3.8440534 2.36334952 4.1709445 3.55839337 3.25 5.9375 C2.8375 6.618125 2.425 7.29875 2 8 C1.505 8.9075 1.01 9.815 0.5 10.75 C-0.2425 11.86375 -0.2425 11.86375 -1 13 C-1.66 13 -2.32 13 -3 13 C-2.01 8.71 -1.02 4.42 0 0 Z " fill="#E0E0E0" transform="translate(73,143)"/>
<path d="M0 0 C0.33 0 0.66 0 1 0 C1 2.31 1 4.62 1 7 C1.66 7 2.32 7 3 7 C3.66 5.02 4.32 3.04 5 1 C5.66 1.66 6.32 2.32 7 3 C6.67 3.99 6.34 4.98 6 6 C6.33 6.99 6.66 7.98 7 9 C5.02 9 3.04 9 1 9 C0.01 6.69 -0.98 4.38 -2 2 C-1.34 2 -0.68 2 0 2 C0 1.34 0 0.68 0 0 Z " fill="#323232" transform="translate(60,86)"/>
<path d="M0 0 C-3.48720616 4.3590077 -6.72760915 4.94552183 -12 6 C-12.33 5.34 -12.66 4.68 -13 4 C-11.40233897 3.13372601 -9.79660056 2.28233535 -8.1875 1.4375 C-7.29417969 0.96183594 -6.40085938 0.48617188 -5.48046875 -0.00390625 C-3 -1 -3 -1 0 0 Z " fill="#D9D9D9" transform="translate(140,26)"/>
<path d="M0 0 C0 1.32 0 2.64 0 4 C-3.37097383 5.49821059 -5.20442119 6 -9 6 C-9.33 5.01 -9.66 4.02 -10 3 C-8.70990357 2.49596232 -7.41786211 1.99690074 -6.125 1.5 C-5.04605469 1.08234375 -5.04605469 1.08234375 -3.9453125 0.65625 C-2 0 -2 0 0 0 Z " fill="#302F30" transform="translate(119,202)"/>
<path d="M0 0 C0.33 0.99 0.66 1.98 1 3 C-0.6875 5.6875 -0.6875 5.6875 -3 8 C-4.32 8 -5.64 8 -7 8 C-6.67 6.68 -6.34 5.36 -6 4 C-5.34 4 -4.68 4 -4 4 C-3.67 3.01 -3.34 2.02 -3 1 C-2.01 0.67 -1.02 0.34 0 0 Z " fill="#E4E4E4" transform="translate(113,163)"/>
<path d="M0 0 C0.66 0.33 1.32 0.66 2 1 C0.02 2.65 -1.96 4.3 -4 6 C-1.03 6.33 1.94 6.66 5 7 C5 7.33 5 7.66 5 8 C0.05 8 -4.9 8 -10 8 C-6.72724974 4.72724974 -3.85411644 2.45261955 0 0 Z " fill="#0D0D0D" transform="translate(130,70)"/>
<path d="M0 0 C0 0.99 0 1.98 0 3 C-3.63 3.66 -7.26 4.32 -11 5 C-9 1 -9 1 -7.1875 -0.3125 C-4.45808824 -1.17031512 -2.72321308 -0.75644808 0 0 Z " fill="#A0A0A0" transform="translate(134,57)"/>
<path d="M0 0 C0 2.31 0 4.62 0 7 C-0.99 7 -1.98 7 -3 7 C-5.20142332 9.4390706 -5.20142332 9.4390706 -7 12 C-7.66 11.34 -8.32 10.68 -9 10 C-8.04737966 8.51714758 -7.08771595 7.03881799 -6.125 5.5625 C-5.32449219 4.32693359 -5.32449219 4.32693359 -4.5078125 3.06640625 C-2.27032136 0 -2.27032136 0 0 0 Z " fill="#353535" transform="translate(86,44)"/>
<path d="M0 0 C0.33 0 0.66 0 1 0 C0.85831863 1.43791516 0.71148957 2.8753237 0.5625 4.3125 C0.48128906 5.11300781 0.40007812 5.91351563 0.31640625 6.73828125 C0 9 0 9 -1 12 C-2.32 12 -3.64 12 -5 12 C-3.68938409 7.76570244 -2.05643741 3.92592596 0 0 Z " fill="#D9D8D9" transform="translate(161,149)"/>
<path d="M0 0 C-0.33 1.32 -0.66 2.64 -1 4 C-0.34 4.33 0.32 4.66 1 5 C-2.3 4.67 -5.6 4.34 -9 4 C-9.33 3.01 -9.66 2.02 -10 1 C-6.56484998 0.37542727 -3.50935186 0 0 0 Z " fill="#DEDDDE" transform="translate(99,203)"/>
<path d="M0 0 C0 0.33 0 0.66 0 1 C-5.38027025 2.19088986 -10.45291384 3.2919519 -16 3 C-15 1 -15 1 -11.9375 -0.1875 C-7.73494264 -1.31225083 -4.24886887 -0.74541559 0 0 Z " fill="#2A2A2A" transform="translate(139,87)"/>
<path d="M0 0 C-1.40976705 3.03852705 -3.08870228 5.5939595 -5.125 8.25 C-5.66382812 8.95640625 -6.20265625 9.6628125 -6.7578125 10.390625 C-7.16773437 10.92171875 -7.57765625 11.4528125 -8 12 C-8.66 11.67 -9.32 11.34 -10 11 C-8.64763423 8.06120516 -7.10057341 5.70767089 -5 3.25 C-4.484375 2.63640625 -3.96875 2.0228125 -3.4375 1.390625 C-2 0 -2 0 0 0 Z " fill="#252525" transform="translate(79,55)"/>
<path d="M0 0 C-0.99 0.495 -0.99 0.495 -2 1 C-1.67 1.66 -1.34 2.32 -1 3 C-6.445 5.475 -6.445 5.475 -12 8 C-10.19034476 4.38068952 -9.62288851 3.3659701 -6.5625 1.1875 C-5.66724609 0.52814453 -5.66724609 0.52814453 -4.75390625 -0.14453125 C-3 -1 -3 -1 0 0 Z " fill="#1C1C1C" transform="translate(138,38)"/>
<path d="M0 0 C3 1 3 1 4.6875 4.3125 C6 8 6 8 6 12 C5.34 12 4.68 12 4 12 C3.3291288 10.3767313 2.66342971 8.75132422 2 7.125 C1.62875 6.22007813 1.2575 5.31515625 0.875 4.3828125 C0 2 0 2 0 0 Z " fill="#131313" transform="translate(177,90)"/>
<path d="M0 0 C0.99 0.33 1.98 0.66 3 1 C2.67 1.99 2.34 2.98 2 4 C0.68 4 -0.64 4 -2 4 C-2 4.99 -2 5.98 -2 7 C-3.98 7.33 -5.96 7.66 -8 8 C-8 6.68 -8 5.36 -8 4 C-5.36 3.67 -2.72 3.34 0 3 C0 2.01 0 1.02 0 0 Z " fill="#B2B2B2" transform="translate(152,36)"/>
<path d="M0 0 C-2.22825644 2.22825644 -3.65761628 2.69239369 -6.625 3.625 C-7.44226563 3.88539062 -8.25953125 4.14578125 -9.1015625 4.4140625 C-9.72804687 4.60742188 -10.35453125 4.80078125 -11 5 C-12.02104551 4.02149805 -13.0206121 3.02019573 -14 2 C-14 1.67 -14 1.34 -14 1 C-4.58997722 -0.14806378 -4.58997722 -0.14806378 0 0 Z " fill="#EAEAEA" transform="translate(177,34)"/>
<path d="M0 0 C3.875 1.875 3.875 1.875 5 3 C6.51469448 3.23192865 8.03754562 3.41215238 9.5625 3.5625 C10.38878906 3.64628906 11.21507813 3.73007813 12.06640625 3.81640625 C12.70449219 3.87699219 13.34257813 3.93757813 14 4 C14 4.66 14 5.32 14 6 C6.02201622 6.62572422 6.02201622 6.62572422 1.9375 4.125 C0 2 0 2 0 0 Z " fill="#262626" transform="translate(106,73)"/>
<path d="M0 0 C0.33 1.32 0.66 2.64 1 4 C-2.625 7 -2.625 7 -6 7 C-6 5.68 -6 4.36 -6 3 C-4.02 2.01 -2.04 1.02 0 0 Z " fill="#3B3A3B" transform="translate(125,198)"/>
<path d="M0 0 C-0.33 1.65 -0.66 3.3 -1 5 C-3.31 5 -5.62 5 -8 5 C-8.33 4.34 -8.66 3.68 -9 3 C-8.34 3 -7.68 3 -7 3 C-7 2.34 -7 1.68 -7 1 C-4.50935112 0.31292445 -2.62113708 0 0 0 Z " fill="#E4E4E4" transform="translate(96,173)"/>
<path d="M0 0 C0.5775 0.37125 1.155 0.7425 1.75 1.125 C0.55375 1.516875 -0.6425 1.90875 -1.875 2.3125 C-6.14507155 3.89288235 -8.9235206 6.04800655 -12.25 9.125 C-11.91960927 6.04135318 -11.27342865 5.14652903 -8.9375 3 C-2.97770511 -1.15799643 -2.97770511 -1.15799643 0 0 Z " fill="#242424" transform="translate(107.25,100.875)"/>
<path d="M0 0 C0.66 0.99 1.32 1.98 2 3 C4.58380177 3.25030977 4.58380177 3.25030977 7 3 C4.3144406 5.6855594 1.62378672 6.06049974 -2 7 C-2.66 6.34 -3.32 5.68 -4 5 C-2.25 1.125 -2.25 1.125 0 0 Z " fill="#292929" transform="translate(139,34)"/>
<path d="M0 0 C0.99 0.33 1.98 0.66 3 1 C2.67 1.99 2.34 2.98 2 4 C-3.94 4.495 -3.94 4.495 -10 5 C-7.6875 2.9375 -7.6875 2.9375 -5 1 C-4.01 1.33 -3.02 1.66 -2 2 C-1.34 1.34 -0.68 0.68 0 0 Z " fill="#2E2E2E" transform="translate(141,51)"/>
<path d="M0 0 C1.0625 1.875 1.0625 1.875 2 4 C1.67 4.66 1.34 5.32 1 6 C2.65 5.67 4.3 5.34 6 5 C2.93882432 7.62386487 2.26826873 8 -2 8 C-2.33 6.02 -2.66 4.04 -3 2 C-2.01 1.34 -1.02 0.68 0 0 Z " fill="#585858" transform="translate(125,44)"/>
<path d="M0 0 C-2.52952288 3.15111212 -4.76756266 3.58798017 -8.6875 4.1875 C-9.68136719 4.34605469 -10.67523438 4.50460938 -11.69921875 4.66796875 C-12.45847656 4.77753906 -13.21773437 4.88710938 -14 5 C-12.49587218 1.99174436 -10.13951699 1.69337029 -7.078125 0.59765625 C-4.64864679 -0.10104707 -2.51431136 -0.23571669 0 0 Z " fill="#101010" transform="translate(162,15)"/>
<path d="M0 0 C0.99 0.33 1.98 0.66 3 1 C4.17755913 3.94389782 4.03348696 4.89953913 3 8 C1.68 7.67 0.36 7.34 -1 7 C-0.67 4.69 -0.34 2.38 0 0 Z " fill="#E2E1E2" transform="translate(26,162)"/>
<path d="M0 0 C0.33 0 0.66 0 1 0 C1.33 1.65 1.66 3.3 2 5 C2.66 4.34 3.32 3.68 4 3 C3.44271087 6.34373475 2.64826111 9.03312999 1 12 C-0.32 11.67 -1.64 11.34 -3 11 C-2.01 11 -1.02 11 0 11 C0 7.37 0 3.74 0 0 Z " fill="#101010" transform="translate(91,106)"/>
<path d="M0 0 C3.55780196 0.60990891 6.6828589 1.5783681 10 3 C9.67 3.99 9.34 4.98 9 6 C4.545 4.02 4.545 4.02 0 2 C-0.33 2.66 -0.66 3.32 -1 4 C-0.67 2.68 -0.34 1.36 0 0 Z " fill="#1D1D1D" transform="translate(162,108)"/>
<path d="M0 0 C0.99 0.33 1.98 0.66 3 1 C5.00875442 0.72428861 7.01178687 0.39764263 9 0 C6.65085508 2.34914492 5.04320554 2.73140357 1.875 3.625 C0.50988281 4.01558594 0.50988281 4.01558594 -0.8828125 4.4140625 C-1.58148438 4.60742188 -2.28015625 4.80078125 -3 5 C-2.625 3.0625 -2.625 3.0625 -2 1 C-1.34 0.67 -0.68 0.34 0 0 Z " fill="#B1B1B1" transform="translate(130,43)"/>
<path d="M0 0 C0 0.66 0 1.32 0 2 C-1.65848177 3.01351664 -3.32665961 4.01120795 -5 5 C-6.36984198 6.29579647 -7.7151049 7.61992749 -9 9 C-9.99 8.67 -10.98 8.34 -12 8 C-10.33333333 6.66666667 -8.66666667 5.33333333 -7 4 C-5.6696875 2.88625 -5.6696875 2.88625 -4.3125 1.75 C-2 0 -2 0 0 0 Z " fill="#4C4C4C" transform="translate(133,30)"/>
<path d="M0 0 C0 1.65 0 3.3 0 5 C-1.8125 5.625 -1.8125 5.625 -4 6 C-4.99 5.34 -5.98 4.68 -7 4 C-7 3.34 -7 2.68 -7 2 C-2.25 0 -2.25 0 0 0 Z " fill="#E5E4E5" transform="translate(117,198)"/>
<path d="M0 0 C2.23551759 3.35327639 2.17283528 3.90743657 1.625 7.6875 C1.51414062 8.49574219 1.40328125 9.30398437 1.2890625 10.13671875 C1.19367188 10.75160156 1.09828125 11.36648437 1 12 C-0.55078125 10.79296875 -0.55078125 10.79296875 -2 9 C-1.85546875 6.73828125 -1.85546875 6.73828125 -1.1875 4.3125 C-0.97480469 3.50425781 -0.76210937 2.69601563 -0.54296875 1.86328125 C-0.36378906 1.24839844 -0.18460937 0.63351563 0 0 Z " fill="#DEDEDE" transform="translate(123,136)"/>
<path d="M0 0 C0.99 0 1.98 0 3 0 C2.34 3.3 1.68 6.6 1 10 C0.34 10 -0.32 10 -1 10 C-1.125 2.25 -1.125 2.25 0 0 Z " fill="#F1F1F1" transform="translate(125,131)"/>
<path d="M0 0 C-2.38573379 1.89213369 -4.07175348 3.02391783 -7 4 C-9.1875 3.0625 -9.1875 3.0625 -11 2 C-6.89657963 -0.38570952 -4.61380251 -1.49270081 0 0 Z " fill="#D8D8D8" transform="translate(107,99)"/>
<path d="M0 0 C3.3 0 6.6 0 10 0 C7.29811996 1.80125336 5.06942297 3.00243753 2 4 C1.01 3.67 0.02 3.34 -1 3 C-0.67 2.01 -0.34 1.02 0 0 Z " fill="#0A0A0A" transform="translate(148,79)"/>
<path d="M0 0 C1.03159626 3.09478879 0.97482862 4.52631393 0.5625 7.6875 C0.46066406 8.49574219 0.35882813 9.30398437 0.25390625 10.13671875 C0.17011719 10.75160156 0.08632812 11.36648437 0 12 C-1.32 11.01 -2.64 10.02 -4 9 C-3.34 9 -2.68 9 -2 9 C-1.91773332 5.95613276 -2.02391783 3.92824652 -3 1 C-2.01 0.67 -1.02 0.34 0 0 Z " fill="#696969" transform="translate(80,64)"/>
<path d="M0 0 C0.33 0.99 0.66 1.98 1 3 C-2.96 3.99 -6.92 4.98 -11 6 C-7.92832129 2.92832129 -4.55956968 0 0 0 Z " fill="#525252" transform="translate(155,68)"/>
<path d="M0 0 C-1.28716647 1.00578589 -2.57988658 2.00446798 -3.875 3 C-4.95394531 3.8353125 -4.95394531 3.8353125 -6.0546875 4.6875 C-8 6 -8 6 -10 6 C-8.20404732 1.26521567 -5.07984355 -1.69328118 0 0 Z " fill="#181818" transform="translate(150,30)"/>
<path d="M0 0 C0.66 0 1.32 0 2 0 C2.05416188 1.60379341 2.09286638 3.20811406 2.125 4.8125 C2.14820313 5.70582031 2.17140625 6.59914062 2.1953125 7.51953125 C2 10 2 10 0 13 C-0.86072203 9.55711188 -0.9831895 7.38654161 0 4 C0 2.68 0 1.36 0 0 Z " fill="#F7F6F7" transform="translate(34,134)"/>
<path d="M0 0 C0.99 0.66 1.98 1.32 3 2 C0.36 3.98 -2.28 5.96 -5 8 C-5.66 7.67 -6.32 7.34 -7 7 C-4.69 4.69 -2.38 2.38 0 0 Z " fill="#1C1C1C" transform="translate(103,42)"/>
<path d="M0 0 C1.46726798 3.81489674 0.43336419 6.29011622 -1 10 C-1.99 9.67 -2.98 9.34 -4 9 C-4 8.01 -4 7.02 -4 6 C-3.34 6 -2.68 6 -2 6 C-1.7834375 5.071875 -1.7834375 5.071875 -1.5625 4.125 C-1 2 -1 2 0 0 Z " fill="#F6F6F6" transform="translate(74,150)"/>
<path d="M0 0 C0.66 0.33 1.32 0.66 2 1 C-0.31 3.64 -2.62 6.28 -5 9 C-5.66 8.34 -6.32 7.68 -7 7 C-4.69 4.69 -2.38 2.38 0 0 Z M-9 8 C-8.34 8.33 -7.68 8.66 -7 9 C-7.99 9 -8.98 9 -10 9 C-9.67 8.67 -9.34 8.34 -9 8 Z " fill="#DFDFDF" transform="translate(122,48)"/>
<path d="M0 0 C0.66 0.99 1.32 1.98 2 3 C-0.64 4.65 -3.28 6.3 -6 8 C-6 5 -6 5 -4.6875 3.61328125 C-3.125 2.40885417 -1.5625 1.20442708 0 0 Z " fill="#242424" transform="translate(102,33)"/>
<path d="M0 0 C1.32 0.66 2.64 1.32 4 2 C3.67 3.65 3.34 5.3 3 7 C1.68 6.67 0.36 6.34 -1 6 C-0.67 4.02 -0.34 2.04 0 0 Z " fill="#403F40" transform="translate(15,189)"/>
<path d="M0 0 C2.50037734 2.17424117 3.43628586 3.73045798 4 7 C1.64828869 6.40138258 -0.6859378 5.73075648 -3 5 C-3.33 4.34 -3.66 3.68 -4 3 C-1.525 3.495 -1.525 3.495 1 4 C0.67 2.68 0.34 1.36 0 0 Z " fill="#4B4B4B" transform="translate(54,126)"/>
<path d="M0 0 C0.99 0 1.98 0 3 0 C2.34 2.31 1.68 4.62 1 7 C0.67 6.34 0.34 5.68 0 5 C-0.66 5 -1.32 5 -2 5 C-1.125 1.125 -1.125 1.125 0 0 Z " fill="#F0F0F0" transform="translate(81,120)"/>
<path d="M0 0 C1.1875 1.6875 1.1875 1.6875 2 4 C0.67172689 6.85578718 -0.14643942 8.57321971 -3 10 C-1.125 2.25 -1.125 2.25 0 0 Z " fill="#B7B7B7" transform="translate(64,73)"/>
<path d="M0 0 C-1.98 0.99 -1.98 0.99 -4 2 C-4 2.66 -4 3.32 -4 4 C-5.32 3.67 -6.64 3.34 -8 3 C-8 2.34 -8 1.68 -8 1 C-3.375 -1.125 -3.375 -1.125 0 0 Z " fill="#F9F9F9" transform="translate(145,46)"/>
<path d="M0 0 C3 0 3 0 5 1 C3.61918777 5.1424367 1.40174442 6.32203099 -2 9 C-1.34 6.03 -0.68 3.06 0 0 Z " fill="#898989" transform="translate(116,38)"/>
<path d="M0 0 C-2.93828597 2.50298434 -5.17902761 3.46930939 -9 4 C-8 1 -8 1 -5.625 -0.25 C-3 -1 -3 -1 0 0 Z " fill="#232323" transform="translate(149,20)"/>
<path d="M0 0 C0.96516243 3.00272755 1.22393475 5.04215769 0 8 C-0.99 8.33 -1.98 8.66 -3 9 C-2.5020163 5.26512223 -2.12508244 3.18762365 0 0 Z " fill="#0D0D0D" transform="translate(74,161)"/>
<path d="M0 0 C0.66 0.33 1.32 0.66 2 1 C2 1.66 2 2.32 2 3 C2.66 3.33 3.32 3.66 4 4 C3.34 4.66 2.68 5.32 2 6 C1.34 6 0.68 6 0 6 C-0.33 6.66 -0.66 7.32 -1 8 C-1.66 7.67 -2.32 7.34 -3 7 C-2.01 4.69 -1.02 2.38 0 0 Z " fill="#403F40" transform="translate(159,161)"/>
<path d="M0 0 C0.99 0.33 1.98 0.66 3 1 C2.67 2.98 2.34 4.96 2 7 C1.01 7 0.02 7 -1 7 C-0.67 4.69 -0.34 2.38 0 0 Z " fill="#2E2D2E" transform="translate(30,136)"/>
<path d="M0 0 C0 0.66 0 1.32 0 2 C-3.3 2.66 -6.6 3.32 -10 4 C-8 1 -8 1 -6.125 0.3125 C-4 0 -4 0 0 0 Z " fill="#E3E3E3" transform="translate(152,37)"/>
<path d="M0 0 C0 0.66 0 1.32 0 2 C-3.465 3.485 -3.465 3.485 -7 5 C-7.33 3.68 -7.66 2.36 -8 1 C-5.10765685 0.17361624 -3.11257569 0 0 0 Z " fill="#373737" transform="translate(182,9)"/>
<path d="M0 0 C1.32 0 2.64 0 4 0 C3.6875 1.9375 3.6875 1.9375 3 4 C2.01 4.33 1.02 4.66 0 5 C-0.5625 3.0625 -0.5625 3.0625 -1 1 C-0.67 0.67 -0.34 0.34 0 0 Z " fill="#393839" transform="translate(134,192)"/>
<path d="M0 0 C0.33 0.66 0.66 1.32 1 2 C1.66 2 2.32 2 3 2 C2.67 3.98 2.34 5.96 2 8 C1.01 8 0.02 8 -1 8 C-0.67 5.36 -0.34 2.72 0 0 Z " fill="#2A2A2A" transform="translate(74,154)"/>
<path d="M0 0 C0.99 0.33 1.98 0.66 3 1 C2.67 2.65 2.34 4.3 2 6 C1.01 6 0.02 6 -1 6 C-0.67 4.02 -0.34 2.04 0 0 Z " fill="#2F2E2F" transform="translate(26,151)"/>
<path d="M0 0 C1.9375 0.3125 1.9375 0.3125 4 1 C4.33 1.99 4.66 2.98 5 4 C4.34 4.66 3.68 5.32 3 6 C2.34 6 1.68 6 1 6 C0.67 4.02 0.34 2.04 0 0 Z " fill="#ECECEC" transform="translate(125,101)"/>
<path d="M0 0 C0.33 0.66 0.66 1.32 1 2 C0.06553465 4.03144641 -0.93224776 6.03533587 -2 8 C-2.99 7.67 -3.98 7.34 -5 7 C-1.125 1.125 -1.125 1.125 0 0 Z " fill="#252525" transform="translate(115,59)"/>
<path d="M0 0 C-2.17424117 2.50037734 -3.73045798 3.43628586 -7 4 C-7 3.01 -7 2.02 -7 1 C-3.375 -1.125 -3.375 -1.125 0 0 Z " fill="#272727" transform="translate(165,41)"/>
<path d="M0 0 C0.99 0.33 1.98 0.66 3 1 C2.67 2.65 2.34 4.3 2 6 C1.01 6 0.02 6 -1 6 C-0.67 4.02 -0.34 2.04 0 0 Z " fill="#2B2A2B" transform="translate(20,173)"/>
<path d="M0 0 C0.99 0.33 1.98 0.66 3 1 C2.67 2.98 2.34 4.96 2 7 C1.01 6.67 0.02 6.34 -1 6 C-0.67 4.02 -0.34 2.04 0 0 Z " fill="#F2F2F2" transform="translate(75,139)"/>
<path d="M0 0 C0.99 0 1.98 0 3 0 C3.33 1.32 3.66 2.64 4 4 C2.02 4 0.04 4 -2 4 C-1.34 2.68 -0.68 1.36 0 0 Z " fill="#898989" transform="translate(57,120)"/>
<path d="M0 0 C2.475 0.495 2.475 0.495 5 1 C5.33 2.65 5.66 4.3 6 6 C3.97945196 4.35830472 1.97956942 2.69088222 0 1 C0 0.67 0 0.34 0 0 Z " fill="#262525" transform="translate(170,73)"/>
<path d="M0 0 C1.98 0.495 1.98 0.495 4 1 C3.01 1.495 3.01 1.495 2 2 C1.835 2.66 1.67 3.32 1.5 4 C1.335 4.66 1.17 5.32 1 6 C0.01 6.495 0.01 6.495 -1 7 C-0.67 4.69 -0.34 2.38 0 0 Z " fill="#363536" transform="translate(12,201)"/>
<path d="M0 0 C0.99 0.33 1.98 0.66 3 1 C2.67 2.98 2.34 4.96 2 7 C1.01 6.67 0.02 6.34 -1 6 C-0.67 4.02 -0.34 2.04 0 0 Z " fill="#292729" transform="translate(17,184)"/>
<path d="M0 0 C4.67692308 1.47692308 4.67692308 1.47692308 6.3125 4.125 C6.539375 4.74375 6.76625 5.3625 7 6 C4.0625 4.6875 4.0625 4.6875 1 3 C0.67 2.01 0.34 1.02 0 0 Z " fill="#BDBDBD" transform="translate(42,134)"/>
<path d="M0 0 C2.50298434 2.93828597 3.46930939 5.17902761 4 9 C3.01 9 2.02 9 1 9 C-0.4783226 6.04335481 -0.06032783 3.25770263 0 0 Z " fill="#D9D9D9" transform="translate(126,118)"/>
<path d="M0 0 C0.66 0.33 1.32 0.66 2 1 C1.6875 2.875 1.6875 2.875 1 5 C0.01 5.66 -0.98 6.32 -2 7 C-1.125 1.125 -1.125 1.125 0 0 Z " fill="#3C3C3C" transform="translate(42,112)"/>
<path d="M0 0 C-3.8503105 2.56687367 -5.58569763 1.83288724 -10 1 C-6.42181037 -1.33958553 -4.07775191 -0.9267618 0 0 Z " fill="#4B4B4B" transform="translate(125,90)"/>
<path d="M0 0 C0.66 0.33 1.32 0.66 2 1 C2 1.66 2 2.32 2 3 C-2.455 4.485 -2.455 4.485 -7 6 C-7 5.34 -7 4.68 -7 4 C-6.030625 3.525625 -5.06125 3.05125 -4.0625 2.5625 C-1.19522563 1.29806053 -1.19522563 1.29806053 0 0 Z " fill="#1A1A1A" transform="translate(73,88)"/>
<path d="M0 0 C-1.65 1.32 -3.3 2.64 -5 4 C-5.33 3.34 -5.66 2.68 -6 2 C-6.99 1.67 -7.98 1.34 -9 1 C-5.8035914 -0.06546953 -3.34252724 -0.07427838 0 0 Z " fill="#DEDEDE" transform="translate(169,15)"/>
</svg>
